<svg width="34" height="34" viewBox="0 0 34 34" fill="none" xmlns="http://www.w3.org/2000/svg">
<rect width="34" height="34" rx="17" fill="white"/>
<g clip-path="url(#clip0_5034_3494)">
<path d="M17.0023 12.9573C14.7309 12.9573 12.8988 14.7608 12.8988 16.9968C12.8988 19.2327 14.7309 21.0362 17.0023 21.0362C19.2738 21.0362 21.1059 19.2327 21.1059 16.9968C21.1059 14.7608 19.2738 12.9573 17.0023 12.9573ZM17.0023 19.6229C15.5345 19.6229 14.3345 18.4452 14.3345 16.9968C14.3345 15.5483 15.5309 14.3706 17.0023 14.3706C18.4738 14.3706 19.6702 15.5483 19.6702 16.9968C19.6702 18.4452 18.4702 19.6229 17.0023 19.6229ZM22.2309 12.7921C22.2309 13.3159 21.8023 13.7343 21.2738 13.7343C20.7416 13.7343 20.3166 13.3124 20.3166 12.7921C20.3166 12.2718 20.7452 11.8499 21.2738 11.8499C21.8023 11.8499 22.2309 12.2718 22.2309 12.7921ZM24.9488 13.7483C24.888 12.4862 24.5952 11.3683 23.6559 10.4472C22.7202 9.52607 21.5845 9.23779 20.3023 9.17451C18.9809 9.10068 15.0202 9.10068 13.6988 9.17451C12.4202 9.23428 11.2845 9.52256 10.3452 10.4437C9.40591 11.3647 9.11663 12.4827 9.05234 13.7448C8.97734 15.0456 8.97734 18.9444 9.05234 20.2452C9.11306 21.5073 9.40591 22.6253 10.3452 23.5464C11.2845 24.4675 12.4166 24.7558 13.6988 24.819C15.0202 24.8929 18.9809 24.8929 20.3023 24.819C21.5845 24.7593 22.7202 24.471 23.6559 23.5464C24.5916 22.6253 24.8845 21.5073 24.9488 20.2452C25.0238 18.9444 25.0238 15.0491 24.9488 13.7483ZM23.2416 21.6409C22.963 22.33 22.4238 22.8608 21.7202 23.1386C20.6666 23.5499 18.1666 23.455 17.0023 23.455C15.8381 23.455 13.3345 23.5464 12.2845 23.1386C11.5845 22.8643 11.0452 22.3335 10.7631 21.6409C10.3452 20.6038 10.4416 18.1429 10.4416 16.9968C10.4416 15.8507 10.3488 13.3862 10.7631 12.3526C11.0416 11.6636 11.5809 11.1327 12.2845 10.855C13.3381 10.4437 15.8381 10.5386 17.0023 10.5386C18.1666 10.5386 20.6702 10.4472 21.7202 10.855C22.4202 11.1292 22.9595 11.6601 23.2416 12.3526C23.6595 13.3897 23.563 15.8507 23.563 16.9968C23.563 18.1429 23.6595 20.6073 23.2416 21.6409Z" fill="#192031"/>
</g>
<defs>
<clipPath id="clip0_5034_3494">
<rect width="16" height="18" fill="white" transform="translate(9 8)"/>
</clipPath>
</defs>
</svg>
