<svg width="44" height="33" viewBox="0 0 44 33" fill="none" xmlns="http://www.w3.org/2000/svg">
<path d="M0 3.07141C0 3.07141 1.90224 3.07141 4.39286 3.07141M24 16.1428C21.0857 15.1143 18.4286 17 17.5714 17.9643C28.2857 7.35712 21.6428 3.07141 18.6428 3.07141C16.6591 3.07141 9.2545 3.07141 4.39286 3.07141M4.39286 3.07141V26.8571C4.42857 28.2857 5.31428 31.2928 8.57142 31.8928L24.1071 32C28.7143 31.5714 35.25 24.5 27.6428 18.0714" stroke="white" stroke-width="0.857142"/>
<path d="M22.1758 22.25L21.2888 23.0261C21.5289 23.3005 21.8825 23.4483 22.2464 23.4264C22.6103 23.4046 22.9437 23.2155 23.1492 22.9144L22.1758 22.25ZM35.9972 2L37.1757 1.98527C37.1693 1.47105 36.8301 1.02036 36.3378 0.871728C35.8455 0.723094 35.3137 0.910833 35.0238 1.33559L35.9972 2ZM36.3186 27.7143H37.4972V27.7069L37.4971 27.6995L36.3186 27.7143ZM19.1758 18.8214L18.2888 19.5975L21.2888 23.0261L22.1758 22.25L23.0627 21.4739L20.0627 18.0453L19.1758 18.8214ZM22.1758 22.25L23.1492 22.9144L36.9706 2.66441L35.9972 2L35.0238 1.33559L21.2023 21.5856L22.1758 22.25ZM35.9972 2L34.8187 2.01473L35.1402 27.729L36.3186 27.7143L37.4971 27.6995L37.1757 1.98527L35.9972 2ZM36.3186 27.7143H35.1401C35.1401 28.5199 35.3462 29.7205 36.0117 30.7603C36.7178 31.8636 37.93 32.75 39.7472 32.75V31.5714V30.3928C38.8216 30.3928 38.3195 29.9935 37.997 29.4897C37.6339 28.9223 37.4972 28.1944 37.4972 27.7143H36.3186ZM39.7472 31.5714V32.75C39.7526 32.75 39.7579 32.75 39.7632 32.75C39.7686 32.75 39.7739 32.75 39.7793 32.75C39.7846 32.75 39.7899 32.75 39.7952 32.75C39.8005 32.75 39.8058 32.75 39.8111 32.75C39.8164 32.75 39.8217 32.75 39.827 32.75C39.8323 32.75 39.8376 32.75 39.8429 32.75C39.8481 32.75 39.8534 32.75 39.8587 32.75C39.8639 32.75 39.8692 32.75 39.8744 32.75C39.8797 32.75 39.8849 32.75 39.8901 32.75C39.8954 32.75 39.9006 32.75 39.9058 32.75C39.911 32.75 39.9162 32.75 39.9214 32.75C39.9266 32.75 39.9318 32.75 39.937 32.75C39.9422 32.75 39.9474 32.75 39.9526 32.75C39.9578 32.75 39.9629 32.75 39.9681 32.75C39.9732 32.75 39.9784 32.75 39.9836 32.75C39.9887 32.75 39.9938 32.75 39.999 32.75C40.0041 32.75 40.0092 32.75 40.0144 32.75C40.0195 32.75 40.0246 32.75 40.0297 32.75C40.0348 32.75 40.0399 32.75 40.045 32.75C40.0501 32.75 40.0552 32.75 40.0603 32.75C40.0653 32.75 40.0704 32.75 40.0755 32.75C40.0805 32.75 40.0856 32.75 40.0906 32.75C40.0957 32.75 40.1007 32.75 40.1058 32.75C40.1108 32.75 40.1158 32.75 40.1209 32.75C40.1259 32.75 40.1309 32.75 40.1359 32.75C40.1409 32.75 40.1459 32.75 40.1509 32.75C40.1559 32.75 40.1609 32.75 40.1659 32.75C40.1709 32.75 40.1759 32.75 40.1808 32.75C40.1858 32.75 40.1908 32.75 40.1957 32.75C40.2007 32.75 40.2056 32.75 40.2106 32.75C40.2155 32.75 40.2204 32.75 40.2254 32.75C40.2303 32.75 40.2352 32.75 40.2401 32.75C40.2451 32.75 40.25 32.75 40.2549 32.75C40.2598 32.75 40.2647 32.75 40.2696 32.75C40.2744 32.75 40.2793 32.75 40.2842 32.75C40.2891 32.75 40.2939 32.75 40.2988 32.75C40.3037 32.75 40.3085 32.75 40.3134 32.75C40.3182 32.75 40.3231 32.75 40.3279 32.75C40.3327 32.75 40.3375 32.75 40.3424 32.75C40.3472 32.75 40.352 32.75 40.3568 32.75C40.3616 32.75 40.3664 32.75 40.3712 32.75C40.376 32.75 40.3808 32.75 40.3856 32.75C40.3904 32.75 40.3951 32.75 40.3999 32.75C40.4047 32.75 40.4094 32.75 40.4142 32.75C40.4189 32.75 40.4237 32.75 40.4284 32.75C40.4332 32.75 40.4379 32.75 40.4426 32.75C40.4473 32.75 40.4521 32.75 40.4568 32.75C40.4615 32.75 40.4662 32.75 40.4709 32.75C40.4756 32.75 40.4803 32.75 40.485 32.75C40.4897 32.75 40.4943 32.75 40.499 32.75C40.5037 32.75 40.5084 32.75 40.513 32.75C40.5177 32.75 40.5223 32.75 40.527 32.75C40.5316 32.75 40.5363 32.75 40.5409 32.75C40.5455 32.75 40.5502 32.75 40.5548 32.75C40.5594 32.75 40.564 32.75 40.5686 32.75C40.5732 32.75 40.5778 32.75 40.5824 32.75C40.587 32.75 40.5916 32.75 40.5962 32.75C40.6008 32.75 40.6054 32.75 40.6099 32.75C40.6145 32.75 40.6191 32.75 40.6236 32.75C40.6282 32.75 40.6327 32.75 40.6373 32.75C40.6418 32.75 40.6463 32.75 40.6509 32.75C40.6554 32.75 40.6599 32.75 40.6644 32.75C40.6689 32.75 40.6734 32.75 40.6779 32.75C40.6825 32.75 40.6869 32.75 40.6914 32.75C40.6959 32.75 40.7004 32.75 40.7049 32.75C40.7094 32.75 40.7138 32.75 40.7183 32.75C40.7228 32.75 40.7272 32.75 40.7317 32.75C40.7361 32.75 40.7406 32.75 40.745 32.75C40.7494 32.75 40.7539 32.75 40.7583 32.75C40.7627 32.75 40.7671 32.75 40.7715 32.75C40.776 32.75 40.7804 32.75 40.7848 32.75C40.7892 32.75 40.7935 32.75 40.7979 32.75C40.8023 32.75 40.8067 32.75 40.8111 32.75C40.8154 32.75 40.8198 32.75 40.8242 32.75C40.8285 32.75 40.8329 32.75 40.8372 32.75C40.8416 32.75 40.8459 32.75 40.8502 32.75C40.8546 32.75 40.8589 32.75 40.8632 32.75C40.8675 32.75 40.8719 32.75 40.8762 32.75C40.8805 32.75 40.8848 32.75 40.8891 32.75C40.8934 32.75 40.8977 32.75 40.9019 32.75C40.9062 32.75 40.9105 32.75 40.9148 32.75C40.919 32.75 40.9233 32.75 40.9276 32.75C40.9318 32.75 40.9361 32.75 40.9403 32.75C40.9446 32.75 40.9488 32.75 40.953 32.75C40.9573 32.75 40.9615 32.75 40.9657 32.75C40.9699 32.75 40.9741 32.75 40.9783 32.75C40.9825 32.75 40.9867 32.75 40.9909 32.75C40.9951 32.75 40.9993 32.75 41.0035 32.75C41.0077 32.75 41.0118 32.75 41.016 32.75C41.0202 32.75 41.0243 32.75 41.0285 32.75C41.0327 32.75 41.0368 32.75 41.0409 32.75C41.0451 32.75 41.0492 32.75 41.0534 32.75C41.0575 32.75 41.0616 32.75 41.0657 32.75C41.0698 32.75 41.074 32.75 41.0781 32.75C41.0822 32.75 41.0863 32.75 41.0904 32.75C41.0944 32.75 41.0985 32.75 41.1026 32.75C41.1067 32.75 41.1108 32.75 41.1148 32.75C41.1189 32.75 41.123 32.75 41.127 32.75C41.1311 32.75 41.1351 32.75 41.1392 32.75C41.1432 32.75 41.1472 32.75 41.1513 32.75C41.1553 32.75 41.1593 32.75 41.1633 32.75C41.1674 32.75 41.1714 32.75 41.1754 32.75C41.1794 32.75 41.1834 32.75 41.1874 32.75C41.1914 32.75 41.1953 32.75 41.1993 32.75C41.2033 32.75 41.2073 32.75 41.2112 32.75C41.2152 32.75 41.2192 32.75 41.2231 32.75C41.2271 32.75 41.231 32.75 41.235 32.75C41.2389 32.75 41.2428 32.75 41.2468 32.75C41.2507 32.75 41.2546 32.75 41.2585 32.75C41.2625 32.75 41.2664 32.75 41.2703 32.75C41.2742 32.75 41.2781 32.75 41.282 32.75C41.2859 32.75 41.2898 32.75 41.2936 32.75C41.2975 32.75 41.3014 32.75 41.3053 32.75C41.3091 32.75 41.313 32.75 41.3168 32.75C41.3207 32.75 41.3246 32.75 41.3284 32.75C41.3322 32.75 41.3361 32.75 41.3399 32.75C41.3437 32.75 41.3476 32.75 41.3514 32.75C41.3552 32.75 41.359 32.75 41.3628 32.75C41.3666 32.75 41.3704 32.75 41.3742 32.75C41.378 32.75 41.3818 32.75 41.3856 32.75C41.3894 32.75 41.3932 32.75 41.3969 32.75C41.4007 32.75 41.4045 32.75 41.4082 32.75C41.412 32.75 41.4157 32.75 41.4195 32.75C41.4232 32.75 41.427 32.75 41.4307 32.75C41.4344 32.75 41.4382 32.75 41.4419 32.75C41.4456 32.75 41.4493 32.75 41.453 32.75C41.4567 32.75 41.4604 32.75 41.4641 32.75C41.4678 32.75 41.4715 32.75 41.4752 32.75C41.4789 32.75 41.4826 32.75 41.4862 32.75C41.4899 32.75 41.4936 32.75 41.4973 32.75C41.5009 32.75 41.5046 32.75 41.5082 32.75C41.5119 32.75 41.5155 32.75 41.5191 32.75C41.5228 32.75 41.5264 32.75 41.53 32.75C41.5337 32.75 41.5373 32.75 41.5409 32.75C41.5445 32.75 41.5481 32.75 41.5517 32.75C41.5553 32.75 41.5589 32.75 41.5625 32.75C41.5661 32.75 41.5697 32.75 41.5733 32.75C41.5768 32.75 41.5804 32.75 41.584 32.75C41.5875 32.75 41.5911 32.75 41.5947 32.75C41.5982 32.75 41.6018 32.75 41.6053 32.75C41.6088 32.75 41.6124 32.75 41.6159 32.75C41.6194 32.75 41.623 32.75 41.6265 32.75C41.63 32.75 41.6335 32.75 41.637 32.75C41.6405 32.75 41.644 32.75 41.6475 32.75C41.651 32.75 41.6545 32.75 41.658 32.75C41.6615 32.75 41.665 32.75 41.6684 32.75C41.6719 32.75 41.6754 32.75 41.6788 32.75C41.6823 32.75 41.6857 32.75 41.6892 32.75C41.6926 32.75 41.6961 32.75 41.6995 32.75C41.7029 32.75 41.7064 32.75 41.7098 32.75C41.7132 32.75 41.7166 32.75 41.72 32.75C41.7235 32.75 41.7269 32.75 41.7303 32.75C41.7337 32.75 41.7371 32.75 41.7405 32.75C41.7438 32.75 41.7472 32.75 41.7506 32.75C41.754 32.75 41.7574 32.75 41.7607 32.75C41.7641 32.75 41.7674 32.75 41.7708 32.75C41.7742 32.75 41.7775 32.75 41.7808 32.75C41.7842 32.75 41.7875 32.75 41.7909 32.75C41.7942 32.75 41.7975 32.75 41.8008 32.75C41.8041 32.75 41.8075 32.75 41.8108 32.75C41.8141 32.75 41.8174 32.75 41.8207 32.75C41.824 32.75 41.8273 32.75 41.8305 32.75C41.8338 32.75 41.8371 32.75 41.8404 32.75C41.8437 32.75 41.8469 32.75 41.8502 32.75C41.8534 32.75 41.8567 32.75 41.86 32.75C41.8632 32.75 41.8664 32.75 41.8697 32.75C41.8729 32.75 41.8762 32.75 41.8794 32.75C41.8826 32.75 41.8858 32.75 41.8891 32.75C41.8923 32.75 41.8955 32.75 41.8987 32.75C41.9019 32.75 41.9051 32.75 41.9083 32.75C41.9115 32.75 41.9147 32.75 41.9178 32.75C41.921 32.75 41.9242 32.75 41.9274 32.75C41.9305 32.75 41.9337 32.75 41.9369 32.75C41.94 32.75 41.9432 32.75 41.9463 32.75C41.9495 32.75 41.9526 32.75 41.9557 32.75C41.9589 32.75 41.962 32.75 41.9651 32.75C41.9683 32.75 41.9714 32.75 41.9745 32.75C41.9776 32.75 41.9807 32.75 41.9838 32.75C41.9869 32.75 41.99 32.75 41.9931 32.75C41.9962 32.75 41.9993 32.75 42.0024 32.75C42.0054 32.75 42.0085 32.75 42.0116 32.75C42.0147 32.75 42.0177 32.75 42.0208 32.75C42.0238 32.75 42.0269 32.75 42.0299 32.75C42.033 32.75 42.036 32.75 42.0391 32.75C42.0421 32.75 42.0451 32.75 42.0481 32.75C42.0512 32.75 42.0542 32.75 42.0572 32.75C42.0602 32.75 42.0632 32.75 42.0662 32.75C42.0692 32.75 42.0722 32.75 42.0752 32.75C42.0782 32.75 42.0812 32.75 42.0842 32.75C42.0871 32.75 42.0901 32.75 42.0931 32.75C42.0961 32.75 42.099 32.75 42.102 32.75C42.1049 32.75 42.1079 32.75 42.1108 32.75C42.1138 32.75 42.1167 32.75 42.1196 32.75C42.1226 32.75 42.1255 32.75 42.1284 32.75C42.1314 32.75 42.1343 32.75 42.1372 32.75C42.1401 32.75 42.143 32.75 42.1459 32.75C42.1488 32.75 42.1517 32.75 42.1546 32.75C42.1575 32.75 42.1604 32.75 42.1633 32.75C42.1661 32.75 42.169 32.75 42.1719 32.75C42.1748 32.75 42.1776 32.75 42.1805 32.75C42.1833 32.75 42.1862 32.75 42.189 32.75C42.1919 32.75 42.1947 32.75 42.1976 32.75C42.2004 32.75 42.2032 32.75 42.2061 32.75C42.2089 32.75 42.2117 32.75 42.2145 32.75C42.2173 32.75 42.2201 32.75 42.2229 32.75C42.2257 32.75 42.2285 32.75 42.2313 32.75C42.2341 32.75 42.2369 32.75 42.2397 32.75C42.2425 32.75 42.2453 32.75 42.248 32.75C42.2508 32.75 42.2536 32.75 42.2563 32.75C42.2591 32.75 42.2618 32.75 42.2646 32.75C42.2673 32.75 42.2701 32.75 42.2728 32.75C42.2756 32.75 42.2783 32.75 42.281 32.75C42.2837 32.75 42.2865 32.75 42.2892 32.75C42.2919 32.75 42.2946 32.75 42.2973 32.75C42.3 32.75 42.3027 32.75 42.3054 32.75C42.3081 32.75 42.3108 32.75 42.3135 32.75C42.3162 32.75 42.3189 32.75 42.3215 32.75C42.3242 32.75 42.3269 32.75 42.3295 32.75C42.3322 32.75 42.3349 32.75 42.3375 32.75C42.3402 32.75 42.3428 32.75 42.3455 32.75C42.3481 32.75 42.3507 32.75 42.3534 32.75C42.356 32.75 42.3586 32.75 42.3613 32.75C42.3639 32.75 42.3665 32.75 42.3691 32.75C42.3717 32.75 42.3743 32.75 42.3769 32.75C42.3795 32.75 42.3821 32.75 42.3847 32.75C42.3873 32.75 42.3899 32.75 42.3925 32.75C42.395 32.75 42.3976 32.75 42.4002 32.75C42.4028 32.75 42.4053 32.75 42.4079 32.75C42.4104 32.75 42.413 32.75 42.4155 32.75C42.4181 32.75 42.4206 32.75 42.4232 32.75C42.4257 32.75 42.4282 32.75 42.4308 32.75C42.4333 32.75 42.4358 32.75 42.4383 32.75C42.4408 32.75 42.4433 32.75 42.4459 32.75C42.4484 32.75 42.4509 32.75 42.4534 32.75C42.4558 32.75 42.4583 32.75 42.4608 32.75C42.4633 32.75 42.4658 32.75 42.4683 32.75C42.4707 32.75 42.4732 32.75 42.4757 32.75C42.4781 32.75 42.4806 32.75 42.4831 32.75C42.4855 32.75 42.488 32.75 42.4904 32.75C42.4928 32.75 42.4953 32.75 42.4977 32.75C42.5001 32.75 42.5026 32.75 42.505 32.75C42.5074 32.75 42.5098 32.75 42.5123 32.75C42.5147 32.75 42.5171 32.75 42.5195 32.75C42.5219 32.75 42.5243 32.75 42.5267 32.75C42.5291 32.75 42.5314 32.75 42.5338 32.75C42.5362 32.75 42.5386 32.75 42.541 32.75C42.5433 32.75 42.5457 32.75 42.5481 32.75C42.5504 32.75 42.5528 32.75 42.5551 32.75C42.5575 32.75 42.5598 32.75 42.5622 32.75C42.5645 32.75 42.5668 32.75 42.5692 32.75C42.5715 32.75 42.5738 32.75 42.5762 32.75C42.5785 32.75 42.5808 32.75 42.5831 32.75C42.5854 32.75 42.5877 32.75 42.59 32.75C42.5923 32.75 42.5946 32.75 42.5969 32.75C42.5992 32.75 42.6015 32.75 42.6038 32.75C42.606 32.75 42.6083 32.75 42.6106 32.75C42.6129 32.75 42.6151 32.75 42.6174 32.75C42.6196 32.75 42.6219 32.75 42.6242 32.75C42.6264 32.75 42.6286 32.75 42.6309 32.75C42.6331 32.75 42.6354 32.75 42.6376 32.75C42.6398 32.75 42.6421 32.75 42.6443 32.75C42.6465 32.75 42.6487 32.75 42.6509 32.75C42.6531 32.75 42.6553 32.75 42.6575 32.75C42.6597 32.75 42.6619 32.75 42.6641 32.75C42.6663 32.75 42.6685 32.75 42.6707 32.75C42.6729 32.75 42.675 32.75 42.6772 32.75C42.6794 32.75 42.6815 32.75 42.6837 32.75C42.6859 32.75 42.688 32.75 42.6902 32.75C42.6923 32.75 42.6945 32.75 42.6966 32.75C42.6987 32.75 42.7009 32.75 42.703 32.75C42.7051 32.75 42.7073 32.75 42.7094 32.75C42.7115 32.75 42.7136 32.75 42.7157 32.75C42.7179 32.75 42.72 32.75 42.7221 32.75C42.7242 32.75 42.7263 32.75 42.7284 32.75C42.7304 32.75 42.7325 32.75 42.7346 32.75C42.7367 32.75 42.7388 32.75 42.7409 32.75C42.7429 32.75 42.745 32.75 42.7471 32.75C42.7491 32.75 42.7512 32.75 42.7532 32.75C42.7553 32.75 42.7573 32.75 42.7594 32.75C42.7614 32.75 42.7635 32.75 42.7655 32.75C42.7675 32.75 42.7696 32.75 42.7716 32.75C42.7736 32.75 42.7756 32.75 42.7776 32.75C42.7796 32.75 42.7817 32.75 42.7837 32.75C42.7857 32.75 42.7877 32.75 42.7897 32.75C42.7917 32.75 42.7936 32.75 42.7956 32.75C42.7976 32.75 42.7996 32.75 42.8016 32.75C42.8035 32.75 42.8055 32.75 42.8075 32.75C42.8095 32.75 42.8114 32.75 42.8134 32.75C42.8153 32.75 42.8173 32.75 42.8192 32.75C42.8212 32.75 42.8231 32.75 42.8251 32.75C42.827 32.75 42.8289 32.75 42.8309 32.75C42.8328 32.75 42.8347 32.75 42.8366 32.75C42.8385 32.75 42.8405 32.75 42.8424 32.75C42.8443 32.75 42.8462 32.75 42.8481 32.75C42.85 32.75 42.8519 32.75 42.8538 32.75C42.8557 32.75 42.8575 32.75 42.8594 32.75C42.8613 32.75 42.8632 32.75 42.865 32.75C42.8669 32.75 42.8688 32.75 42.8706 32.75C42.8725 32.75 42.8744 32.75 42.8762 32.75C42.8781 32.75 42.8799 32.75 42.8818 32.75C42.8836 32.75 42.8854 32.75 42.8873 32.75C42.8891 32.75 42.8909 32.75 42.8928 32.75C42.8946 32.75 42.8964 32.75 42.8982 32.75C42.9 32.75 42.9019 32.75 42.9037 32.75C42.9055 32.75 42.9073 32.75 42.9091 32.75C42.9109 32.75 42.9127 32.75 42.9144 32.75C42.9162 32.75 42.918 32.75 42.9198 32.75C42.9216 32.75 42.9233 32.75 42.9251 32.75C42.9269 32.75 42.9286 32.75 42.9304 32.75C42.9322 32.75 42.9339 32.75 42.9357 32.75C42.9374 32.75 42.9392 32.75 42.9409 32.75C42.9426 32.75 42.9444 32.75 42.9461 32.75C42.9478 32.75 42.9496 32.75 42.9513 32.75C42.953 32.75 42.9547 32.75 42.9564 32.75C42.9582 32.75 42.9599 32.75 42.9616 32.75C42.9633 32.75 42.965 32.75 42.9667 32.75C42.9684 32.75 42.9701 32.75 42.9717 32.75C42.9734 32.75 42.9751 32.75 42.9768 32.75C42.9785 32.75 42.9801 32.75 42.9818 32.75C42.9835 32.75 42.9851 32.75 42.9868 32.75C42.9885 32.75 42.9901 32.75 42.9918 32.75C42.9934 32.75 42.9951 32.75 42.9967 32.75C42.9983 32.75 43 32.75 43.0016 32.75C43.0032 32.75 43.0049 32.75 43.0065 32.75C43.0081 32.75 43.0097 32.75 43.0114 32.75C43.013 32.75 43.0146 32.75 43.0162 32.75C43.0178 32.75 43.0194 32.75 43.021 32.75C43.0226 32.75 43.0242 32.75 43.0258 32.75C43.0273 32.75 43.0289 32.75 43.0305 32.75C43.0321 32.75 43.0337 32.75 43.0352 32.75C43.0368 32.75 43.0384 32.75 43.0399 32.75C43.0415 32.75 43.043 32.75 43.0446 32.75C43.0461 32.75 43.0477 32.75 43.0492 32.75C43.0508 32.75 43.0523 32.75 43.0538 32.75C43.0554 32.75 43.0569 32.75 43.0584 32.75C43.06 32.75 43.0615 32.75 43.063 32.75C43.0645 32.75 43.066 32.75 43.0675 32.75C43.069 32.75 43.0705 32.75 43.072 32.75C43.0735 32.75 43.075 32.75 43.0765 32.75C43.078 32.75 43.0795 32.75 43.081 32.75C43.0825 32.75 43.0839 32.75 43.0854 32.75C43.0869 32.75 43.0883 32.75 43.0898 32.75C43.0913 32.75 43.0927 32.75 43.0942 32.75C43.0956 32.75 43.0971 32.75 43.0985 32.75C43.1 32.75 43.1014 32.75 43.1029 32.75C43.1043 32.75 43.1057 32.75 43.1072 32.75C43.1086 32.75 43.11 32.75 43.1114 32.75C43.1129 32.75 43.1143 32.75 43.1157 32.75C43.1171 32.75 43.1185 32.75 43.1199 32.75C43.1213 32.75 43.1227 32.75 43.1241 32.75C43.1255 32.75 43.1269 32.75 43.1283 32.75C43.1297 32.75 43.131 32.75 43.1324 32.75C43.1338 32.75 43.1352 32.75 43.1365 32.75C43.1379 32.75 43.1393 32.75 43.1406 32.75C43.142 32.75 43.1434 32.75 43.1447 32.75C43.1461 32.75 43.1474 32.75 43.1487 32.75C43.1501 32.75 43.1514 32.75 43.1528 32.75C43.1541 32.75 43.1554 32.75 43.1568 32.75C43.1581 32.75 43.1594 32.75 43.1607 32.75C43.162 32.75 43.1634 32.75 43.1647 32.75C43.166 32.75 43.1673 32.75 43.1686 32.75C43.1699 32.75 43.1712 32.75 43.1725 32.75C43.1738 32.75 43.1751 32.75 43.1763 32.75C43.1776 32.75 43.1789 32.75 43.1802 32.75C43.1815 32.75 43.1827 32.75 43.184 32.75C43.1853 32.75 43.1865 32.75 43.1878 32.75C43.189 32.75 43.1903 32.75 43.1915 32.75C43.1928 32.75 43.194 32.75 43.1953 32.75C43.1965 32.75 43.1978 32.75 43.199 32.75C43.2002 32.75 43.2015 32.75 43.2027 32.75C43.2039 32.75 43.2051 32.75 43.2064 32.75C43.2076 32.75 43.2088 32.75 43.21 32.75C43.2112 32.75 43.2124 32.75 43.2136 32.75C43.2148 32.75 43.216 32.75 43.2172 32.75C43.2184 32.75 43.2196 32.75 43.2208 32.75C43.222 32.75 43.2231 32.75 43.2243 32.75C43.2255 32.75 43.2267 32.75 43.2278 32.75C43.229 32.75 43.2302 32.75 43.2313 32.75C43.2325 32.75 43.2336 32.75 43.2348 32.75C43.2359 32.75 43.2371 32.75 43.2382 32.75C43.2394 32.75 43.2405 32.75 43.2417 32.75C43.2428 32.75 43.2439 32.75 43.2451 32.75C43.2462 32.75 43.2473 32.75 43.2484 32.75C43.2495 32.75 43.2507 32.75 43.2518 32.75C43.2529 32.75 43.254 32.75 43.2551 32.75C43.2562 32.75 43.2573 32.75 43.2584 32.75C43.2595 32.75 43.2606 32.75 43.2617 32.75C43.2628 32.75 43.2638 32.75 43.2649 32.75C43.266 32.75 43.2671 32.75 43.2681 32.75C43.2692 32.75 43.2703 32.75 43.2714 32.75C43.2724 32.75 43.2735 32.75 43.2745 32.75C43.2756 32.75 43.2766 32.75 43.2777 32.75C43.2787 32.75 43.2798 32.75 43.2808 32.75C43.2819 32.75 43.2829 32.75 43.2839 32.75C43.285 32.75 43.286 32.75 43.287 32.75C43.288 32.75 43.2891 32.75 43.2901 32.75C43.2911 32.75 43.2921 32.75 43.2931 32.75C43.2941 32.75 43.2951 32.75 43.2961 32.75C43.2971 32.75 43.2981 32.75 43.2991 32.75C43.3001 32.75 43.3011 32.75 43.3021 32.75C43.3031 32.75 43.304 32.75 43.305 32.75C43.306 32.75 43.307 32.75 43.3079 32.75C43.3089 32.75 43.3099 32.75 43.3108 32.75C43.3118 32.75 43.3128 32.75 43.3137 32.75C43.3147 32.75 43.3156 32.75 43.3166 32.75C43.3175 32.75 43.3184 32.75 43.3194 32.75C43.3203 32.75 43.3213 32.75 43.3222 32.75C43.3231 32.75 43.324 32.75 43.325 32.75C43.3259 32.75 43.3268 32.75 43.3277 32.75C43.3286 32.75 43.3296 32.75 43.3305 32.75C43.3314 32.75 43.3323 32.75 43.3332 32.75C43.3341 32.75 43.335 32.75 43.3359 32.75C43.3368 32.75 43.3376 32.75 43.3385 32.75C43.3394 32.75 43.3403 32.75 43.3412 32.75C43.342 32.75 43.3429 32.75 43.3438 32.75C43.3447 32.75 43.3455 32.75 43.3464 32.75C43.3472 32.75 43.3481 32.75 43.349 32.75C43.3498 32.75 43.3507 32.75 43.3515 32.75C43.3524 32.75 43.3532 32.75 43.354 32.75C43.3549 32.75 43.3557 32.75 43.3565 32.75C43.3574 32.75 43.3582 32.75 43.359 32.75C43.3599 32.75 43.3607 32.75 43.3615 32.75C43.3623 32.75 43.3631 32.75 43.3639 32.75C43.3647 32.75 43.3656 32.75 43.3664 32.75C43.3672 32.75 43.368 32.75 43.3687 32.75C43.3695 32.75 43.3703 32.75 43.3711 32.75C43.3719 32.75 43.3727 32.75 43.3735 32.75C43.3743 32.75 43.375 32.75 43.3758 32.75C43.3766 32.75 43.3773 32.75 43.3781 32.75C43.3789 32.75 43.3796 32.75 43.3804 32.75C43.3812 32.75 43.3819 32.75 43.3827 32.75C43.3834 32.75 43.3842 32.75 43.3849 32.75C43.3856 32.75 43.3864 32.75 43.3871 32.75C43.3879 32.75 43.3886 32.75 43.3893 32.75C43.39 32.75 43.3908 32.75 43.3915 32.75C43.3922 32.75 43.3929 32.75 43.3936 32.75C43.3944 32.75 43.3951 32.75 43.3958 32.75C43.3965 32.75 43.3972 32.75 43.3979 32.75C43.3986 32.75 43.3993 32.75 43.4 32.75C43.4007 32.75 43.4014 32.75 43.402 32.75C43.4027 32.75 43.4034 32.75 43.4041 32.75C43.4048 32.75 43.4054 32.75 43.4061 32.75C43.4068 32.75 43.4074 32.75 43.4081 32.75C43.4088 32.75 43.4094 32.75 43.4101 32.75C43.4107 32.75 43.4114 32.75 43.4121 32.75C43.4127 32.75 43.4133 32.75 43.414 32.75C43.4146 32.75 43.4153 32.75 43.4159 32.75C43.4165 32.75 43.4172 32.75 43.4178 32.75C43.4184 32.75 43.4191 32.75 43.4197 32.75C43.4203 32.75 43.4209 32.75 43.4215 32.75C43.4221 32.75 43.4228 32.75 43.4234 32.75C43.424 32.75 43.4246 32.75 43.4252 32.75C43.4258 32.75 43.4264 32.75 43.427 32.75C43.4276 32.75 43.4281 32.75 43.4287 32.75C43.4293 32.75 43.4299 32.75 43.4305 32.75C43.4311 32.75 43.4316 32.75 43.4322 32.75C43.4328 32.75 43.4334 32.75 43.4339 32.75C43.4345 32.75 43.435 32.75 43.4356 32.75C43.4362 32.75 43.4367 32.75 43.4373 32.75C43.4378 32.75 43.4384 32.75 43.4389 32.75C43.4395 32.75 43.44 32.75 43.4405 32.75C43.4411 32.75 43.4416 32.75 43.4421 32.75C43.4427 32.75 43.4432 32.75 43.4437 32.75C43.4443 32.75 43.4448 32.75 43.4453 32.75C43.4458 32.75 43.4463 32.75 43.4468 32.75C43.4473 32.75 43.4479 32.75 43.4484 32.75C43.4489 32.75 43.4494 32.75 43.4499 32.75C43.4504 32.75 43.4509 32.75 43.4513 32.75C43.4518 32.75 43.4523 32.75 43.4528 32.75C43.4533 32.75 43.4538 32.75 43.4542 32.75C43.4547 32.75 43.4552 32.75 43.4557 32.75C43.4561 32.75 43.4566 32.75 43.4571 32.75C43.4575 32.75 43.458 32.75 43.4584 32.75C43.4589 32.75 43.4594 32.75 43.4598 32.75C43.4603 32.75 43.4607 32.75 43.4612 32.75C43.4616 32.75 43.462 32.75 43.4625 32.75C43.4629 32.75 43.4633 32.75 43.4638 32.75C43.4642 32.75 43.4646 32.75 43.4651 32.75C43.4655 32.75 43.4659 32.75 43.4663 32.75C43.4667 32.75 43.4671 32.75 43.4676 32.75C43.468 32.75 43.4684 32.75 43.4688 32.75C43.4692 32.75 43.4696 32.75 43.47 32.75C43.4704 32.75 43.4708 32.75 43.4712 32.75C43.4716 32.75 43.4719 32.75 43.4723 32.75C43.4727 32.75 43.4731 32.75 43.4735 32.75C43.4739 32.75 43.4742 32.75 43.4746 32.75C43.475 32.75 43.4753 32.75 43.4757 32.75C43.4761 32.75 43.4764 32.75 43.4768 32.75C43.4772 32.75 43.4775 32.75 43.4779 32.75C43.4782 32.75 43.4786 32.75 43.4789 32.75C43.4793 32.75 43.4796 32.75 43.4799 32.75C43.4803 32.75 43.4806 32.75 43.4809 32.75C43.4813 32.75 43.4816 32.75 43.4819 32.75C43.4823 32.75 43.4826 32.75 43.4829 32.75C43.4832 32.75 43.4835 32.75 43.4839 32.75C43.4842 32.75 43.4845 32.75 43.4848 32.75C43.4851 32.75 43.4854 32.75 43.4857 32.75C43.486 32.75 43.4863 32.75 43.4866 32.75C43.4869 32.75 43.4872 32.75 43.4875 32.75C43.4878 32.75 43.4881 32.75 43.4883 32.75C43.4886 32.75 43.4889 32.75 43.4892 32.75C43.4895 32.75 43.4897 32.75 43.49 32.75C43.4903 32.75 43.4905 32.75 43.4908 32.75C43.4911 32.75 43.4913 32.75 43.4916 32.75C43.4918 32.75 43.4921 32.75 43.4924 32.75C43.4926 32.75 43.4929 32.75 43.4931 32.75C43.4933 32.75 43.4936 32.75 43.4938 32.75C43.4941 32.75 43.4943 32.75 43.4945 32.75C43.4948 32.75 43.495 32.75 43.4952 32.75C43.4955 32.75 43.4957 32.75 43.4959 32.75C43.4961 32.75 43.4963 32.75 43.4966 32.75C43.4968 32.75 43.497 32.75 43.4972 32.75V31.5714V30.3928C43.497 30.3928 43.4968 30.3928 43.4966 30.3928C43.4963 30.3928 43.4961 30.3928 43.4959 30.3928C43.4957 30.3928 43.4955 30.3928 43.4952 30.3928C43.495 30.3928 43.4948 30.3928 43.4945 30.3928C43.4943 30.3928 43.4941 30.3928 43.4938 30.3928C43.4936 30.3928 43.4933 30.3928 43.4931 30.3928C43.4929 30.3928 43.4926 30.3928 43.4924 30.3928C43.4921 30.3928 43.4918 30.3928 43.4916 30.3928C43.4913 30.3928 43.4911 30.3928 43.4908 30.3928C43.4905 30.3928 43.4903 30.3928 43.49 30.3928C43.4897 30.3928 43.4895 30.3928 43.4892 30.3928C43.4889 30.3928 43.4886 30.3928 43.4883 30.3928C43.4881 30.3928 43.4878 30.3928 43.4875 30.3928C43.4872 30.3928 43.4869 30.3928 43.4866 30.3928C43.4863 30.3928 43.486 30.3928 43.4857 30.3928C43.4854 30.3928 43.4851 30.3928 43.4848 30.3928C43.4845 30.3928 43.4842 30.3928 43.4839 30.3928C43.4835 30.3928 43.4832 30.3928 43.4829 30.3928C43.4826 30.3928 43.4823 30.3928 43.4819 30.3928C43.4816 30.3928 43.4813 30.3928 43.4809 30.3928C43.4806 30.3928 43.4803 30.3928 43.4799 30.3928C43.4796 30.3928 43.4793 30.3928 43.4789 30.3928C43.4786 30.3928 43.4782 30.3928 43.4779 30.3928C43.4775 30.3928 43.4772 30.3928 43.4768 30.3928C43.4764 30.3928 43.4761 30.3928 43.4757 30.3928C43.4753 30.3928 43.475 30.3928 43.4746 30.3928C43.4742 30.3928 43.4739 30.3928 43.4735 30.3928C43.4731 30.3928 43.4727 30.3928 43.4723 30.3928C43.4719 30.3928 43.4716 30.3928 43.4712 30.3928C43.4708 30.3928 43.4704 30.3928 43.47 30.3928C43.4696 30.3928 43.4692 30.3928 43.4688 30.3928C43.4684 30.3928 43.468 30.3928 43.4676 30.3928C43.4671 30.3928 43.4667 30.3928 43.4663 30.3928C43.4659 30.3928 43.4655 30.3928 43.4651 30.3928C43.4646 30.3928 43.4642 30.3928 43.4638 30.3928C43.4633 30.3928 43.4629 30.3928 43.4625 30.3928C43.462 30.3928 43.4616 30.3928 43.4612 30.3928C43.4607 30.3928 43.4603 30.3928 43.4598 30.3928C43.4594 30.3928 43.4589 30.3928 43.4584 30.3928C43.458 30.3928 43.4575 30.3928 43.4571 30.3928C43.4566 30.3928 43.4561 30.3928 43.4557 30.3928C43.4552 30.3928 43.4547 30.3928 43.4542 30.3928C43.4538 30.3928 43.4533 30.3928 43.4528 30.3928C43.4523 30.3928 43.4518 30.3928 43.4513 30.3928C43.4509 30.3928 43.4504 30.3928 43.4499 30.3928C43.4494 30.3928 43.4489 30.3928 43.4484 30.3928C43.4479 30.3928 43.4473 30.3928 43.4468 30.3928C43.4463 30.3928 43.4458 30.3928 43.4453 30.3928C43.4448 30.3928 43.4443 30.3928 43.4437 30.3928C43.4432 30.3928 43.4427 30.3928 43.4421 30.3928C43.4416 30.3928 43.4411 30.3928 43.4405 30.3928C43.44 30.3928 43.4395 30.3928 43.4389 30.3928C43.4384 30.3928 43.4378 30.3928 43.4373 30.3928C43.4367 30.3928 43.4362 30.3928 43.4356 30.3928C43.435 30.3928 43.4345 30.3928 43.4339 30.3928C43.4334 30.3928 43.4328 30.3928 43.4322 30.3928C43.4316 30.3928 43.4311 30.3928 43.4305 30.3928C43.4299 30.3928 43.4293 30.3928 43.4287 30.3928C43.4281 30.3928 43.4276 30.3928 43.427 30.3928C43.4264 30.3928 43.4258 30.3928 43.4252 30.3928C43.4246 30.3928 43.424 30.3928 43.4234 30.3928C43.4228 30.3928 43.4221 30.3928 43.4215 30.3928C43.4209 30.3928 43.4203 30.3928 43.4197 30.3928C43.4191 30.3928 43.4184 30.3928 43.4178 30.3928C43.4172 30.3928 43.4165 30.3928 43.4159 30.3928C43.4153 30.3928 43.4146 30.3928 43.414 30.3928C43.4133 30.3928 43.4127 30.3928 43.4121 30.3928C43.4114 30.3928 43.4107 30.3928 43.4101 30.3928C43.4094 30.3928 43.4088 30.3928 43.4081 30.3928C43.4074 30.3928 43.4068 30.3928 43.4061 30.3928C43.4054 30.3928 43.4048 30.3928 43.4041 30.3928C43.4034 30.3928 43.4027 30.3928 43.402 30.3928C43.4014 30.3928 43.4007 30.3928 43.4 30.3928C43.3993 30.3928 43.3986 30.3928 43.3979 30.3928C43.3972 30.3928 43.3965 30.3928 43.3958 30.3928C43.3951 30.3928 43.3944 30.3928 43.3936 30.3928C43.3929 30.3928 43.3922 30.3928 43.3915 30.3928C43.3908 30.3928 43.39 30.3928 43.3893 30.3928C43.3886 30.3928 43.3879 30.3928 43.3871 30.3928C43.3864 30.3928 43.3856 30.3928 43.3849 30.3928C43.3842 30.3928 43.3834 30.3928 43.3827 30.3928C43.3819 30.3928 43.3812 30.3928 43.3804 30.3928C43.3796 30.3928 43.3789 30.3928 43.3781 30.3928C43.3773 30.3928 43.3766 30.3928 43.3758 30.3928C43.375 30.3928 43.3743 30.3928 43.3735 30.3928C43.3727 30.3928 43.3719 30.3928 43.3711 30.3928C43.3703 30.3928 43.3695 30.3928 43.3687 30.3928C43.368 30.3928 43.3672 30.3928 43.3664 30.3928C43.3656 30.3928 43.3647 30.3928 43.3639 30.3928C43.3631 30.3928 43.3623 30.3928 43.3615 30.3928C43.3607 30.3928 43.3599 30.3928 43.359 30.3928C43.3582 30.3928 43.3574 30.3928 43.3565 30.3928C43.3557 30.3928 43.3549 30.3928 43.354 30.3928C43.3532 30.3928 43.3524 30.3928 43.3515 30.3928C43.3507 30.3928 43.3498 30.3928 43.349 30.3928C43.3481 30.3928 43.3472 30.3928 43.3464 30.3928C43.3455 30.3928 43.3447 30.3928 43.3438 30.3928C43.3429 30.3928 43.342 30.3928 43.3412 30.3928C43.3403 30.3928 43.3394 30.3928 43.3385 30.3928C43.3376 30.3928 43.3368 30.3928 43.3359 30.3928C43.335 30.3928 43.3341 30.3928 43.3332 30.3928C43.3323 30.3928 43.3314 30.3928 43.3305 30.3928C43.3296 30.3928 43.3286 30.3928 43.3277 30.3928C43.3268 30.3928 43.3259 30.3928 43.325 30.3928C43.324 30.3928 43.3231 30.3928 43.3222 30.3928C43.3213 30.3928 43.3203 30.3928 43.3194 30.3928C43.3184 30.3928 43.3175 30.3928 43.3166 30.3928C43.3156 30.3928 43.3147 30.3928 43.3137 30.3928C43.3128 30.3928 43.3118 30.3928 43.3108 30.3928C43.3099 30.3928 43.3089 30.3928 43.3079 30.3928C43.307 30.3928 43.306 30.3928 43.305 30.3928C43.304 30.3928 43.3031 30.3928 43.3021 30.3928C43.3011 30.3928 43.3001 30.3928 43.2991 30.3928C43.2981 30.3928 43.2971 30.3928 43.2961 30.3928C43.2951 30.3928 43.2941 30.3928 43.2931 30.3928C43.2921 30.3928 43.2911 30.3928 43.2901 30.3928C43.2891 30.3928 43.288 30.3928 43.287 30.3928C43.286 30.3928 43.285 30.3928 43.2839 30.3928C43.2829 30.3928 43.2819 30.3928 43.2808 30.3928C43.2798 30.3928 43.2787 30.3928 43.2777 30.3928C43.2766 30.3928 43.2756 30.3928 43.2745 30.3928C43.2735 30.3928 43.2724 30.3928 43.2714 30.3928C43.2703 30.3928 43.2692 30.3928 43.2681 30.3928C43.2671 30.3928 43.266 30.3928 43.2649 30.3928C43.2638 30.3928 43.2628 30.3928 43.2617 30.3928C43.2606 30.3928 43.2595 30.3928 43.2584 30.3928C43.2573 30.3928 43.2562 30.3928 43.2551 30.3928C43.254 30.3928 43.2529 30.3928 43.2518 30.3928C43.2507 30.3928 43.2495 30.3928 43.2484 30.3928C43.2473 30.3928 43.2462 30.3928 43.2451 30.3928C43.2439 30.3928 43.2428 30.3928 43.2417 30.3928C43.2405 30.3928 43.2394 30.3928 43.2382 30.3928C43.2371 30.3928 43.2359 30.3928 43.2348 30.3928C43.2336 30.3928 43.2325 30.3928 43.2313 30.3928C43.2302 30.3928 43.229 30.3928 43.2278 30.3928C43.2267 30.3928 43.2255 30.3928 43.2243 30.3928C43.2231 30.3928 43.222 30.3928 43.2208 30.3928C43.2196 30.3928 43.2184 30.3928 43.2172 30.3928C43.216 30.3928 43.2148 30.3928 43.2136 30.3928C43.2124 30.3928 43.2112 30.3928 43.21 30.3928C43.2088 30.3928 43.2076 30.3928 43.2064 30.3928C43.2051 30.3928 43.2039 30.3928 43.2027 30.3928C43.2015 30.3928 43.2002 30.3928 43.199 30.3928C43.1978 30.3928 43.1965 30.3928 43.1953 30.3928C43.194 30.3928 43.1928 30.3928 43.1915 30.3928C43.1903 30.3928 43.189 30.3928 43.1878 30.3928C43.1865 30.3928 43.1853 30.3928 43.184 30.3928C43.1827 30.3928 43.1815 30.3928 43.1802 30.3928C43.1789 30.3928 43.1776 30.3928 43.1763 30.3928C43.1751 30.3928 43.1738 30.3928 43.1725 30.3928C43.1712 30.3928 43.1699 30.3928 43.1686 30.3928C43.1673 30.3928 43.166 30.3928 43.1647 30.3928C43.1634 30.3928 43.162 30.3928 43.1607 30.3928C43.1594 30.3928 43.1581 30.3928 43.1568 30.3928C43.1554 30.3928 43.1541 30.3928 43.1528 30.3928C43.1514 30.3928 43.1501 30.3928 43.1487 30.3928C43.1474 30.3928 43.1461 30.3928 43.1447 30.3928C43.1434 30.3928 43.142 30.3928 43.1406 30.3928C43.1393 30.3928 43.1379 30.3928 43.1365 30.3928C43.1352 30.3928 43.1338 30.3928 43.1324 30.3928C43.131 30.3928 43.1297 30.3928 43.1283 30.3928C43.1269 30.3928 43.1255 30.3928 43.1241 30.3928C43.1227 30.3928 43.1213 30.3928 43.1199 30.3928C43.1185 30.3928 43.1171 30.3928 43.1157 30.3928C43.1143 30.3928 43.1129 30.3928 43.1114 30.3928C43.11 30.3928 43.1086 30.3928 43.1072 30.3928C43.1057 30.3928 43.1043 30.3928 43.1029 30.3928C43.1014 30.3928 43.1 30.3928 43.0985 30.3928C43.0971 30.3928 43.0956 30.3928 43.0942 30.3928C43.0927 30.3928 43.0913 30.3928 43.0898 30.3928C43.0883 30.3928 43.0869 30.3928 43.0854 30.3928C43.0839 30.3928 43.0825 30.3928 43.081 30.3928C43.0795 30.3928 43.078 30.3928 43.0765 30.3928C43.075 30.3928 43.0735 30.3928 43.072 30.3928C43.0705 30.3928 43.069 30.3928 43.0675 30.3928C43.066 30.3928 43.0645 30.3928 43.063 30.3928C43.0615 30.3928 43.06 30.3928 43.0584 30.3928C43.0569 30.3928 43.0554 30.3928 43.0538 30.3928C43.0523 30.3928 43.0508 30.3928 43.0492 30.3928C43.0477 30.3928 43.0461 30.3928 43.0446 30.3928C43.043 30.3928 43.0415 30.3928 43.0399 30.3928C43.0384 30.3928 43.0368 30.3928 43.0352 30.3928C43.0337 30.3928 43.0321 30.3928 43.0305 30.3928C43.0289 30.3928 43.0273 30.3928 43.0258 30.3928C43.0242 30.3928 43.0226 30.3928 43.021 30.3928C43.0194 30.3928 43.0178 30.3928 43.0162 30.3928C43.0146 30.3928 43.013 30.3928 43.0114 30.3928C43.0097 30.3928 43.0081 30.3928 43.0065 30.3928C43.0049 30.3928 43.0032 30.3928 43.0016 30.3928C43 30.3928 42.9983 30.3928 42.9967 30.3928C42.9951 30.3928 42.9934 30.3928 42.9918 30.3928C42.9901 30.3928 42.9885 30.3928 42.9868 30.3928C42.9851 30.3928 42.9835 30.3928 42.9818 30.3928C42.9801 30.3928 42.9785 30.3928 42.9768 30.3928C42.9751 30.3928 42.9734 30.3928 42.9717 30.3928C42.9701 30.3928 42.9684 30.3928 42.9667 30.3928C42.965 30.3928 42.9633 30.3928 42.9616 30.3928C42.9599 30.3928 42.9582 30.3928 42.9564 30.3928C42.9547 30.3928 42.953 30.3928 42.9513 30.3928C42.9496 30.3928 42.9478 30.3928 42.9461 30.3928C42.9444 30.3928 42.9426 30.3928 42.9409 30.3928C42.9392 30.3928 42.9374 30.3928 42.9357 30.3928C42.9339 30.3928 42.9322 30.3928 42.9304 30.3928C42.9286 30.3928 42.9269 30.3928 42.9251 30.3928C42.9233 30.3928 42.9216 30.3928 42.9198 30.3928C42.918 30.3928 42.9162 30.3928 42.9144 30.3928C42.9127 30.3928 42.9109 30.3928 42.9091 30.3928C42.9073 30.3928 42.9055 30.3928 42.9037 30.3928C42.9019 30.3928 42.9 30.3928 42.8982 30.3928C42.8964 30.3928 42.8946 30.3928 42.8928 30.3928C42.8909 30.3928 42.8891 30.3928 42.8873 30.3928C42.8854 30.3928 42.8836 30.3928 42.8818 30.3928C42.8799 30.3928 42.8781 30.3928 42.8762 30.3928C42.8744 30.3928 42.8725 30.3928 42.8706 30.3928C42.8688 30.3928 42.8669 30.3928 42.865 30.3928C42.8632 30.3928 42.8613 30.3928 42.8594 30.3928C42.8575 30.3928 42.8557 30.3928 42.8538 30.3928C42.8519 30.3928 42.85 30.3928 42.8481 30.3928C42.8462 30.3928 42.8443 30.3928 42.8424 30.3928C42.8405 30.3928 42.8385 30.3928 42.8366 30.3928C42.8347 30.3928 42.8328 30.3928 42.8309 30.3928C42.8289 30.3928 42.827 30.3928 42.8251 30.3928C42.8231 30.3928 42.8212 30.3928 42.8192 30.3928C42.8173 30.3928 42.8153 30.3928 42.8134 30.3928C42.8114 30.3928 42.8095 30.3928 42.8075 30.3928C42.8055 30.3928 42.8035 30.3928 42.8016 30.3928C42.7996 30.3928 42.7976 30.3928 42.7956 30.3928C42.7936 30.3928 42.7917 30.3928 42.7897 30.3928C42.7877 30.3928 42.7857 30.3928 42.7837 30.3928C42.7817 30.3928 42.7796 30.3928 42.7776 30.3928C42.7756 30.3928 42.7736 30.3928 42.7716 30.3928C42.7696 30.3928 42.7675 30.3928 42.7655 30.3928C42.7635 30.3928 42.7614 30.3928 42.7594 30.3928C42.7573 30.3928 42.7553 30.3928 42.7532 30.3928C42.7512 30.3928 42.7491 30.3928 42.7471 30.3928C42.745 30.3928 42.7429 30.3928 42.7409 30.3928C42.7388 30.3928 42.7367 30.3928 42.7346 30.3928C42.7325 30.3928 42.7304 30.3928 42.7284 30.3928C42.7263 30.3928 42.7242 30.3928 42.7221 30.3928C42.72 30.3928 42.7179 30.3928 42.7157 30.3928C42.7136 30.3928 42.7115 30.3928 42.7094 30.3928C42.7073 30.3928 42.7051 30.3928 42.703 30.3928C42.7009 30.3928 42.6987 30.3928 42.6966 30.3928C42.6945 30.3928 42.6923 30.3928 42.6902 30.3928C42.688 30.3928 42.6859 30.3928 42.6837 30.3928C42.6815 30.3928 42.6794 30.3928 42.6772 30.3928C42.675 30.3928 42.6729 30.3928 42.6707 30.3928C42.6685 30.3928 42.6663 30.3928 42.6641 30.3928C42.6619 30.3928 42.6597 30.3928 42.6575 30.3928C42.6553 30.3928 42.6531 30.3928 42.6509 30.3928C42.6487 30.3928 42.6465 30.3928 42.6443 30.3928C42.6421 30.3928 42.6398 30.3928 42.6376 30.3928C42.6354 30.3928 42.6331 30.3928 42.6309 30.3928C42.6286 30.3928 42.6264 30.3928 42.6242 30.3928C42.6219 30.3928 42.6196 30.3928 42.6174 30.3928C42.6151 30.3928 42.6129 30.3928 42.6106 30.3928C42.6083 30.3928 42.606 30.3928 42.6038 30.3928C42.6015 30.3928 42.5992 30.3928 42.5969 30.3928C42.5946 30.3928 42.5923 30.3928 42.59 30.3928C42.5877 30.3928 42.5854 30.3928 42.5831 30.3928C42.5808 30.3928 42.5785 30.3928 42.5762 30.3928C42.5738 30.3928 42.5715 30.3928 42.5692 30.3928C42.5668 30.3928 42.5645 30.3928 42.5622 30.3928C42.5598 30.3928 42.5575 30.3928 42.5551 30.3928C42.5528 30.3928 42.5504 30.3928 42.5481 30.3928C42.5457 30.3928 42.5433 30.3928 42.541 30.3928C42.5386 30.3928 42.5362 30.3928 42.5338 30.3928C42.5314 30.3928 42.5291 30.3928 42.5267 30.3928C42.5243 30.3928 42.5219 30.3928 42.5195 30.3928C42.5171 30.3928 42.5147 30.3928 42.5123 30.3928C42.5098 30.3928 42.5074 30.3928 42.505 30.3928C42.5026 30.3928 42.5001 30.3928 42.4977 30.3928C42.4953 30.3928 42.4928 30.3928 42.4904 30.3928C42.488 30.3928 42.4855 30.3928 42.4831 30.3928C42.4806 30.3928 42.4781 30.3928 42.4757 30.3928C42.4732 30.3928 42.4707 30.3928 42.4683 30.3928C42.4658 30.3928 42.4633 30.3928 42.4608 30.3928C42.4583 30.3928 42.4558 30.3928 42.4534 30.3928C42.4509 30.3928 42.4484 30.3928 42.4459 30.3928C42.4433 30.3928 42.4408 30.3928 42.4383 30.3928C42.4358 30.3928 42.4333 30.3928 42.4308 30.3928C42.4282 30.3928 42.4257 30.3928 42.4232 30.3928C42.4206 30.3928 42.4181 30.3928 42.4155 30.3928C42.413 30.3928 42.4104 30.3928 42.4079 30.3928C42.4053 30.3928 42.4028 30.3928 42.4002 30.3928C42.3976 30.3928 42.395 30.3928 42.3925 30.3928C42.3899 30.3928 42.3873 30.3928 42.3847 30.3928C42.3821 30.3928 42.3795 30.3928 42.3769 30.3928C42.3743 30.3928 42.3717 30.3928 42.3691 30.3928C42.3665 30.3928 42.3639 30.3928 42.3613 30.3928C42.3586 30.3928 42.356 30.3928 42.3534 30.3928C42.3507 30.3928 42.3481 30.3928 42.3455 30.3928C42.3428 30.3928 42.3402 30.3928 42.3375 30.3928C42.3349 30.3928 42.3322 30.3928 42.3295 30.3928C42.3269 30.3928 42.3242 30.3928 42.3215 30.3928C42.3189 30.3928 42.3162 30.3928 42.3135 30.3928C42.3108 30.3928 42.3081 30.3928 42.3054 30.3928C42.3027 30.3928 42.3 30.3928 42.2973 30.3928C42.2946 30.3928 42.2919 30.3928 42.2892 30.3928C42.2865 30.3928 42.2837 30.3928 42.281 30.3928C42.2783 30.3928 42.2756 30.3928 42.2728 30.3928C42.2701 30.3928 42.2673 30.3928 42.2646 30.3928C42.2618 30.3928 42.2591 30.3928 42.2563 30.3928C42.2536 30.3928 42.2508 30.3928 42.248 30.3928C42.2453 30.3928 42.2425 30.3928 42.2397 30.3928C42.2369 30.3928 42.2341 30.3928 42.2313 30.3928C42.2285 30.3928 42.2257 30.3928 42.2229 30.3928C42.2201 30.3928 42.2173 30.3928 42.2145 30.3928C42.2117 30.3928 42.2089 30.3928 42.2061 30.3928C42.2032 30.3928 42.2004 30.3928 42.1976 30.3928C42.1947 30.3928 42.1919 30.3928 42.189 30.3928C42.1862 30.3928 42.1833 30.3928 42.1805 30.3928C42.1776 30.3928 42.1748 30.3928 42.1719 30.3928C42.169 30.3928 42.1661 30.3928 42.1633 30.3928C42.1604 30.3928 42.1575 30.3928 42.1546 30.3928C42.1517 30.3928 42.1488 30.3928 42.1459 30.3928C42.143 30.3928 42.1401 30.3928 42.1372 30.3928C42.1343 30.3928 42.1314 30.3928 42.1284 30.3928C42.1255 30.3928 42.1226 30.3928 42.1196 30.3928C42.1167 30.3928 42.1138 30.3928 42.1108 30.3928C42.1079 30.3928 42.1049 30.3928 42.102 30.3928C42.099 30.3928 42.0961 30.3928 42.0931 30.3928C42.0901 30.3928 42.0871 30.3928 42.0842 30.3928C42.0812 30.3928 42.0782 30.3928 42.0752 30.3928C42.0722 30.3928 42.0692 30.3928 42.0662 30.3928C42.0632 30.3928 42.0602 30.3928 42.0572 30.3928C42.0542 30.3928 42.0512 30.3928 42.0481 30.3928C42.0451 30.3928 42.0421 30.3928 42.0391 30.3928C42.036 30.3928 42.033 30.3928 42.0299 30.3928C42.0269 30.3928 42.0238 30.3928 42.0208 30.3928C42.0177 30.3928 42.0147 30.3928 42.0116 30.3928C42.0085 30.3928 42.0054 30.3928 42.0024 30.3928C41.9993 30.3928 41.9962 30.3928 41.9931 30.3928C41.99 30.3928 41.9869 30.3928 41.9838 30.3928C41.9807 30.3928 41.9776 30.3928 41.9745 30.3928C41.9714 30.3928 41.9683 30.3928 41.9651 30.3928C41.962 30.3928 41.9589 30.3928 41.9557 30.3928C41.9526 30.3928 41.9495 30.3928 41.9463 30.3928C41.9432 30.3928 41.94 30.3928 41.9369 30.3928C41.9337 30.3928 41.9305 30.3928 41.9274 30.3928C41.9242 30.3928 41.921 30.3928 41.9178 30.3928C41.9147 30.3928 41.9115 30.3928 41.9083 30.3928C41.9051 30.3928 41.9019 30.3928 41.8987 30.3928C41.8955 30.3928 41.8923 30.3928 41.8891 30.3928C41.8858 30.3928 41.8826 30.3928 41.8794 30.3928C41.8762 30.3928 41.8729 30.3928 41.8697 30.3928C41.8664 30.3928 41.8632 30.3928 41.86 30.3928C41.8567 30.3928 41.8534 30.3928 41.8502 30.3928C41.8469 30.3928 41.8437 30.3928 41.8404 30.3928C41.8371 30.3928 41.8338 30.3928 41.8305 30.3928C41.8273 30.3928 41.824 30.3928 41.8207 30.3928C41.8174 30.3928 41.8141 30.3928 41.8108 30.3928C41.8075 30.3928 41.8041 30.3928 41.8008 30.3928C41.7975 30.3928 41.7942 30.3928 41.7909 30.3928C41.7875 30.3928 41.7842 30.3928 41.7808 30.3928C41.7775 30.3928 41.7742 30.3928 41.7708 30.3928C41.7674 30.3928 41.7641 30.3928 41.7607 30.3928C41.7574 30.3928 41.754 30.3928 41.7506 30.3928C41.7472 30.3928 41.7438 30.3928 41.7405 30.3928C41.7371 30.3928 41.7337 30.3928 41.7303 30.3928C41.7269 30.3928 41.7235 30.3928 41.72 30.3928C41.7166 30.3928 41.7132 30.3928 41.7098 30.3928C41.7064 30.3928 41.7029 30.3928 41.6995 30.3928C41.6961 30.3928 41.6926 30.3928 41.6892 30.3928C41.6857 30.3928 41.6823 30.3928 41.6788 30.3928C41.6754 30.3928 41.6719 30.3928 41.6684 30.3928C41.665 30.3928 41.6615 30.3928 41.658 30.3928C41.6545 30.3928 41.651 30.3928 41.6475 30.3928C41.644 30.3928 41.6405 30.3928 41.637 30.3928C41.6335 30.3928 41.63 30.3928 41.6265 30.3928C41.623 30.3928 41.6194 30.3928 41.6159 30.3928C41.6124 30.3928 41.6088 30.3928 41.6053 30.3928C41.6018 30.3928 41.5982 30.3928 41.5947 30.3928C41.5911 30.3928 41.5875 30.3928 41.584 30.3928C41.5804 30.3928 41.5768 30.3928 41.5733 30.3928C41.5697 30.3928 41.5661 30.3928 41.5625 30.3928C41.5589 30.3928 41.5553 30.3928 41.5517 30.3928C41.5481 30.3928 41.5445 30.3928 41.5409 30.3928C41.5373 30.3928 41.5337 30.3928 41.53 30.3928C41.5264 30.3928 41.5228 30.3928 41.5191 30.3928C41.5155 30.3928 41.5119 30.3928 41.5082 30.3928C41.5046 30.3928 41.5009 30.3928 41.4973 30.3928C41.4936 30.3928 41.4899 30.3928 41.4862 30.3928C41.4826 30.3928 41.4789 30.3928 41.4752 30.3928C41.4715 30.3928 41.4678 30.3928 41.4641 30.3928C41.4604 30.3928 41.4567 30.3928 41.453 30.3928C41.4493 30.3928 41.4456 30.3928 41.4419 30.3928C41.4382 30.3928 41.4344 30.3928 41.4307 30.3928C41.427 30.3928 41.4232 30.3928 41.4195 30.3928C41.4157 30.3928 41.412 30.3928 41.4082 30.3928C41.4045 30.3928 41.4007 30.3928 41.3969 30.3928C41.3932 30.3928 41.3894 30.3928 41.3856 30.3928C41.3818 30.3928 41.378 30.3928 41.3742 30.3928C41.3704 30.3928 41.3666 30.3928 41.3628 30.3928C41.359 30.3928 41.3552 30.3928 41.3514 30.3928C41.3476 30.3928 41.3437 30.3928 41.3399 30.3928C41.3361 30.3928 41.3322 30.3928 41.3284 30.3928C41.3246 30.3928 41.3207 30.3928 41.3168 30.3928C41.313 30.3928 41.3091 30.3928 41.3053 30.3928C41.3014 30.3928 41.2975 30.3928 41.2936 30.3928C41.2898 30.3928 41.2859 30.3928 41.282 30.3928C41.2781 30.3928 41.2742 30.3928 41.2703 30.3928C41.2664 30.3928 41.2625 30.3928 41.2585 30.3928C41.2546 30.3928 41.2507 30.3928 41.2468 30.3928C41.2428 30.3928 41.2389 30.3928 41.235 30.3928C41.231 30.3928 41.2271 30.3928 41.2231 30.3928C41.2192 30.3928 41.2152 30.3928 41.2112 30.3928C41.2073 30.3928 41.2033 30.3928 41.1993 30.3928C41.1953 30.3928 41.1914 30.3928 41.1874 30.3928C41.1834 30.3928 41.1794 30.3928 41.1754 30.3928C41.1714 30.3928 41.1674 30.3928 41.1633 30.3928C41.1593 30.3928 41.1553 30.3928 41.1513 30.3928C41.1472 30.3928 41.1432 30.3928 41.1392 30.3928C41.1351 30.3928 41.1311 30.3928 41.127 30.3928C41.123 30.3928 41.1189 30.3928 41.1148 30.3928C41.1108 30.3928 41.1067 30.3928 41.1026 30.3928C41.0985 30.3928 41.0944 30.3928 41.0904 30.3928C41.0863 30.3928 41.0822 30.3928 41.0781 30.3928C41.074 30.3928 41.0698 30.3928 41.0657 30.3928C41.0616 30.3928 41.0575 30.3928 41.0534 30.3928C41.0492 30.3928 41.0451 30.3928 41.0409 30.3928C41.0368 30.3928 41.0327 30.3928 41.0285 30.3928C41.0243 30.3928 41.0202 30.3928 41.016 30.3928C41.0118 30.3928 41.0077 30.3928 41.0035 30.3928C40.9993 30.3928 40.9951 30.3928 40.9909 30.3928C40.9867 30.3928 40.9825 30.3928 40.9783 30.3928C40.9741 30.3928 40.9699 30.3928 40.9657 30.3928C40.9615 30.3928 40.9573 30.3928 40.953 30.3928C40.9488 30.3928 40.9446 30.3928 40.9403 30.3928C40.9361 30.3928 40.9318 30.3928 40.9276 30.3928C40.9233 30.3928 40.919 30.3928 40.9148 30.3928C40.9105 30.3928 40.9062 30.3928 40.9019 30.3928C40.8977 30.3928 40.8934 30.3928 40.8891 30.3928C40.8848 30.3928 40.8805 30.3928 40.8762 30.3928C40.8719 30.3928 40.8675 30.3928 40.8632 30.3928C40.8589 30.3928 40.8546 30.3928 40.8502 30.3928C40.8459 30.3928 40.8416 30.3928 40.8372 30.3928C40.8329 30.3928 40.8285 30.3928 40.8242 30.3928C40.8198 30.3928 40.8154 30.3928 40.8111 30.3928C40.8067 30.3928 40.8023 30.3928 40.7979 30.3928C40.7935 30.3928 40.7892 30.3928 40.7848 30.3928C40.7804 30.3928 40.776 30.3928 40.7715 30.3928C40.7671 30.3928 40.7627 30.3928 40.7583 30.3928C40.7539 30.3928 40.7494 30.3928 40.745 30.3928C40.7406 30.3928 40.7361 30.3928 40.7317 30.3928C40.7272 30.3928 40.7228 30.3928 40.7183 30.3928C40.7138 30.3928 40.7094 30.3928 40.7049 30.3928C40.7004 30.3928 40.6959 30.3928 40.6914 30.3928C40.6869 30.3928 40.6825 30.3928 40.6779 30.3928C40.6734 30.3928 40.6689 30.3928 40.6644 30.3928C40.6599 30.3928 40.6554 30.3928 40.6509 30.3928C40.6463 30.3928 40.6418 30.3928 40.6373 30.3928C40.6327 30.3928 40.6282 30.3928 40.6236 30.3928C40.6191 30.3928 40.6145 30.3928 40.6099 30.3928C40.6054 30.3928 40.6008 30.3928 40.5962 30.3928C40.5916 30.3928 40.587 30.3928 40.5824 30.3928C40.5778 30.3928 40.5732 30.3928 40.5686 30.3928C40.564 30.3928 40.5594 30.3928 40.5548 30.3928C40.5502 30.3928 40.5455 30.3928 40.5409 30.3928C40.5363 30.3928 40.5316 30.3928 40.527 30.3928C40.5223 30.3928 40.5177 30.3928 40.513 30.3928C40.5084 30.3928 40.5037 30.3928 40.499 30.3928C40.4943 30.3928 40.4897 30.3928 40.485 30.3928C40.4803 30.3928 40.4756 30.3928 40.4709 30.3928C40.4662 30.3928 40.4615 30.3928 40.4568 30.3928C40.4521 30.3928 40.4473 30.3928 40.4426 30.3928C40.4379 30.3928 40.4332 30.3928 40.4284 30.3928C40.4237 30.3928 40.4189 30.3928 40.4142 30.3928C40.4094 30.3928 40.4047 30.3928 40.3999 30.3928C40.3951 30.3928 40.3904 30.3928 40.3856 30.3928C40.3808 30.3928 40.376 30.3928 40.3712 30.3928C40.3664 30.3928 40.3616 30.3928 40.3568 30.3928C40.352 30.3928 40.3472 30.3928 40.3424 30.3928C40.3375 30.3928 40.3327 30.3928 40.3279 30.3928C40.3231 30.3928 40.3182 30.3928 40.3134 30.3928C40.3085 30.3928 40.3037 30.3928 40.2988 30.3928C40.2939 30.3928 40.2891 30.3928 40.2842 30.3928C40.2793 30.3928 40.2744 30.3928 40.2696 30.3928C40.2647 30.3928 40.2598 30.3928 40.2549 30.3928C40.25 30.3928 40.2451 30.3928 40.2401 30.3928C40.2352 30.3928 40.2303 30.3928 40.2254 30.3928C40.2204 30.3928 40.2155 30.3928 40.2106 30.3928C40.2056 30.3928 40.2007 30.3928 40.1957 30.3928C40.1908 30.3928 40.1858 30.3928 40.1808 30.3928C40.1759 30.3928 40.1709 30.3928 40.1659 30.3928C40.1609 30.3928 40.1559 30.3928 40.1509 30.3928C40.1459 30.3928 40.1409 30.3928 40.1359 30.3928C40.1309 30.3928 40.1259 30.3928 40.1209 30.3928C40.1158 30.3928 40.1108 30.3928 40.1058 30.3928C40.1007 30.3928 40.0957 30.3928 40.0906 30.3928C40.0856 30.3928 40.0805 30.3928 40.0755 30.3928C40.0704 30.3928 40.0653 30.3928 40.0603 30.3928C40.0552 30.3928 40.0501 30.3928 40.045 30.3928C40.0399 30.3928 40.0348 30.3928 40.0297 30.3928C40.0246 30.3928 40.0195 30.3928 40.0144 30.3928C40.0092 30.3928 40.0041 30.3928 39.999 30.3928C39.9938 30.3928 39.9887 30.3928 39.9836 30.3928C39.9784 30.3928 39.9732 30.3928 39.9681 30.3928C39.9629 30.3928 39.9578 30.3928 39.9526 30.3928C39.9474 30.3928 39.9422 30.3928 39.937 30.3928C39.9318 30.3928 39.9266 30.3928 39.9214 30.3928C39.9162 30.3928 39.911 30.3928 39.9058 30.3928C39.9006 30.3928 39.8954 30.3928 39.8901 30.3928C39.8849 30.3928 39.8797 30.3928 39.8744 30.3928C39.8692 30.3928 39.8639 30.3928 39.8587 30.3928C39.8534 30.3928 39.8481 30.3928 39.8429 30.3928C39.8376 30.3928 39.8323 30.3928 39.827 30.3928C39.8217 30.3928 39.8164 30.3928 39.8111 30.3928C39.8058 30.3928 39.8005 30.3928 39.7952 30.3928C39.7899 30.3928 39.7846 30.3928 39.7793 30.3928C39.7739 30.3928 39.7686 30.3928 39.7632 30.3928C39.7579 30.3928 39.7526 30.3928 39.7472 30.3928V31.5714Z" fill="white"/>
</svg>
