<svg width="44" height="33" viewBox="0 0 44 33" fill="none" xmlns="http://www.w3.org/2000/svg">
<path d="M0 3.07141C0 3.07141 1.90224 3.07141 4.39286 3.07141M24 16.1428C21.0857 15.1143 18.4286 17 17.5714 17.9643C28.2857 7.35712 21.6428 3.07141 18.6428 3.07141C16.6591 3.07141 9.2545 3.07141 4.39286 3.07141M4.39286 3.07141V26.8571C4.42857 28.2857 5.31428 31.2928 8.57142 31.8928L24.1071 32C28.7143 31.5714 35.25 24.5 27.6428 18.0714" stroke="black" stroke-width="0.857142"/>
<path d="M22.1777 22.25L21.2908 23.0261C21.5309 23.3005 21.8844 23.4483 22.2484 23.4264C22.6123 23.4046 22.9456 23.2155 23.1512 22.9144L22.1777 22.25ZM35.9992 2L37.1776 1.98527C37.1712 1.47105 36.8321 1.02036 36.3398 0.871728C35.8475 0.723094 35.3156 0.910833 35.0257 1.33559L35.9992 2ZM36.3206 27.7143H37.4992V27.7069L37.4991 27.6995L36.3206 27.7143ZM19.1777 18.8214L18.2908 19.5975L21.2908 23.0261L22.1777 22.25L23.0647 21.4739L20.0647 18.0453L19.1777 18.8214ZM22.1777 22.25L23.1512 22.9144L36.9726 2.66441L35.9992 2L35.0257 1.33559L21.2043 21.5856L22.1777 22.25ZM35.9992 2L34.8207 2.01473L35.1421 27.729L36.3206 27.7143L37.4991 27.6995L37.1776 1.98527L35.9992 2ZM36.3206 27.7143H35.142C35.142 28.5199 35.3482 29.7205 36.0136 30.7603C36.7197 31.8636 37.9319 32.75 39.7492 32.75V31.5714V30.3928C38.8235 30.3928 38.3214 29.9935 37.999 29.4897C37.6358 28.9223 37.4992 28.1944 37.4992 27.7143H36.3206ZM39.7492 31.5714V32.75C39.7545 32.75 39.7599 32.75 39.7652 32.75C39.7705 32.75 39.7759 32.75 39.7812 32.75C39.7865 32.75 39.7919 32.75 39.7972 32.75C39.8025 32.75 39.8078 32.75 39.8131 32.75C39.8184 32.75 39.8237 32.75 39.829 32.75C39.8343 32.75 39.8396 32.75 39.8448 32.75C39.8501 32.75 39.8554 32.75 39.8606 32.75C39.8659 32.75 39.8711 32.75 39.8764 32.75C39.8816 32.75 39.8869 32.75 39.8921 32.75C39.8973 32.75 39.9025 32.75 39.9078 32.75C39.913 32.75 39.9182 32.75 39.9234 32.75C39.9286 32.75 39.9338 32.75 39.939 32.75C39.9442 32.75 39.9494 32.75 39.9545 32.75C39.9597 32.75 39.9649 32.75 39.97 32.75C39.9752 32.75 39.9804 32.75 39.9855 32.75C39.9907 32.75 39.9958 32.75 40.0009 32.75C40.0061 32.75 40.0112 32.75 40.0163 32.75C40.0214 32.75 40.0265 32.75 40.0317 32.75C40.0368 32.75 40.0419 32.75 40.0469 32.75C40.052 32.75 40.0571 32.75 40.0622 32.75C40.0673 32.75 40.0724 32.75 40.0774 32.75C40.0825 32.75 40.0875 32.75 40.0926 32.75C40.0977 32.75 40.1027 32.75 40.1077 32.75C40.1128 32.75 40.1178 32.75 40.1228 32.75C40.1278 32.75 40.1329 32.75 40.1379 32.75C40.1429 32.75 40.1479 32.75 40.1529 32.75C40.1579 32.75 40.1629 32.75 40.1679 32.75C40.1728 32.75 40.1778 32.75 40.1828 32.75C40.1878 32.75 40.1927 32.75 40.1977 32.75C40.2026 32.75 40.2076 32.75 40.2125 32.75C40.2175 32.75 40.2224 32.75 40.2273 32.75C40.2323 32.75 40.2372 32.75 40.2421 32.75C40.247 32.75 40.2519 32.75 40.2568 32.75C40.2617 32.75 40.2666 32.75 40.2715 32.75C40.2764 32.75 40.2813 32.75 40.2862 32.75C40.291 32.75 40.2959 32.75 40.3008 32.75C40.3056 32.75 40.3105 32.75 40.3153 32.75C40.3202 32.75 40.325 32.75 40.3298 32.75C40.3347 32.75 40.3395 32.75 40.3443 32.75C40.3491 32.75 40.354 32.75 40.3588 32.75C40.3636 32.75 40.3684 32.75 40.3732 32.75C40.378 32.75 40.3827 32.75 40.3875 32.75C40.3923 32.75 40.3971 32.75 40.4018 32.75C40.4066 32.75 40.4114 32.75 40.4161 32.75C40.4209 32.75 40.4256 32.75 40.4304 32.75C40.4351 32.75 40.4398 32.75 40.4446 32.75C40.4493 32.75 40.454 32.75 40.4587 32.75C40.4634 32.75 40.4682 32.75 40.4729 32.75C40.4776 32.75 40.4822 32.75 40.4869 32.75C40.4916 32.75 40.4963 32.75 40.501 32.75C40.5056 32.75 40.5103 32.75 40.515 32.75C40.5196 32.75 40.5243 32.75 40.5289 32.75C40.5336 32.75 40.5382 32.75 40.5429 32.75C40.5475 32.75 40.5521 32.75 40.5567 32.75C40.5614 32.75 40.566 32.75 40.5706 32.75C40.5752 32.75 40.5798 32.75 40.5844 32.75C40.589 32.75 40.5936 32.75 40.5982 32.75C40.6027 32.75 40.6073 32.75 40.6119 32.75C40.6164 32.75 40.621 32.75 40.6256 32.75C40.6301 32.75 40.6347 32.75 40.6392 32.75C40.6437 32.75 40.6483 32.75 40.6528 32.75C40.6573 32.75 40.6619 32.75 40.6664 32.75C40.6709 32.75 40.6754 32.75 40.6799 32.75C40.6844 32.75 40.6889 32.75 40.6934 32.75C40.6979 32.75 40.7024 32.75 40.7068 32.75C40.7113 32.75 40.7158 32.75 40.7202 32.75C40.7247 32.75 40.7292 32.75 40.7336 32.75C40.7381 32.75 40.7425 32.75 40.7469 32.75C40.7514 32.75 40.7558 32.75 40.7602 32.75C40.7647 32.75 40.7691 32.75 40.7735 32.75C40.7779 32.75 40.7823 32.75 40.7867 32.75C40.7911 32.75 40.7955 32.75 40.7999 32.75C40.8043 32.75 40.8086 32.75 40.813 32.75C40.8174 32.75 40.8218 32.75 40.8261 32.75C40.8305 32.75 40.8348 32.75 40.8392 32.75C40.8435 32.75 40.8479 32.75 40.8522 32.75C40.8565 32.75 40.8609 32.75 40.8652 32.75C40.8695 32.75 40.8738 32.75 40.8781 32.75C40.8824 32.75 40.8867 32.75 40.891 32.75C40.8953 32.75 40.8996 32.75 40.9039 32.75C40.9082 32.75 40.9125 32.75 40.9167 32.75C40.921 32.75 40.9253 32.75 40.9295 32.75C40.9338 32.75 40.938 32.75 40.9423 32.75C40.9465 32.75 40.9507 32.75 40.955 32.75C40.9592 32.75 40.9634 32.75 40.9677 32.75C40.9719 32.75 40.9761 32.75 40.9803 32.75C40.9845 32.75 40.9887 32.75 40.9929 32.75C40.9971 32.75 41.0013 32.75 41.0054 32.75C41.0096 32.75 41.0138 32.75 41.018 32.75C41.0221 32.75 41.0263 32.75 41.0305 32.75C41.0346 32.75 41.0388 32.75 41.0429 32.75C41.047 32.75 41.0512 32.75 41.0553 32.75C41.0594 32.75 41.0636 32.75 41.0677 32.75C41.0718 32.75 41.0759 32.75 41.08 32.75C41.0841 32.75 41.0882 32.75 41.0923 32.75C41.0964 32.75 41.1005 32.75 41.1046 32.75C41.1086 32.75 41.1127 32.75 41.1168 32.75C41.1209 32.75 41.1249 32.75 41.129 32.75C41.133 32.75 41.1371 32.75 41.1411 32.75C41.1452 32.75 41.1492 32.75 41.1532 32.75C41.1572 32.75 41.1613 32.75 41.1653 32.75C41.1693 32.75 41.1733 32.75 41.1773 32.75C41.1813 32.75 41.1853 32.75 41.1893 32.75C41.1933 32.75 41.1973 32.75 41.2013 32.75C41.2053 32.75 41.2092 32.75 41.2132 32.75C41.2172 32.75 41.2211 32.75 41.2251 32.75C41.229 32.75 41.233 32.75 41.2369 32.75C41.2409 32.75 41.2448 32.75 41.2487 32.75C41.2527 32.75 41.2566 32.75 41.2605 32.75C41.2644 32.75 41.2683 32.75 41.2722 32.75C41.2761 32.75 41.28 32.75 41.2839 32.75C41.2878 32.75 41.2917 32.75 41.2956 32.75C41.2995 32.75 41.3033 32.75 41.3072 32.75C41.3111 32.75 41.3149 32.75 41.3188 32.75C41.3227 32.75 41.3265 32.75 41.3304 32.75C41.3342 32.75 41.338 32.75 41.3419 32.75C41.3457 32.75 41.3495 32.75 41.3533 32.75C41.3572 32.75 41.361 32.75 41.3648 32.75C41.3686 32.75 41.3724 32.75 41.3762 32.75C41.38 32.75 41.3838 32.75 41.3875 32.75C41.3913 32.75 41.3951 32.75 41.3989 32.75C41.4026 32.75 41.4064 32.75 41.4102 32.75C41.4139 32.75 41.4177 32.75 41.4214 32.75C41.4252 32.75 41.4289 32.75 41.4326 32.75C41.4364 32.75 41.4401 32.75 41.4438 32.75C41.4476 32.75 41.4513 32.75 41.455 32.75C41.4587 32.75 41.4624 32.75 41.4661 32.75C41.4698 32.75 41.4735 32.75 41.4772 32.75C41.4809 32.75 41.4845 32.75 41.4882 32.75C41.4919 32.75 41.4955 32.75 41.4992 32.75C41.5029 32.75 41.5065 32.75 41.5102 32.75C41.5138 32.75 41.5175 32.75 41.5211 32.75C41.5247 32.75 41.5284 32.75 41.532 32.75C41.5356 32.75 41.5392 32.75 41.5429 32.75C41.5465 32.75 41.5501 32.75 41.5537 32.75C41.5573 32.75 41.5609 32.75 41.5645 32.75C41.5681 32.75 41.5716 32.75 41.5752 32.75C41.5788 32.75 41.5824 32.75 41.5859 32.75C41.5895 32.75 41.5931 32.75 41.5966 32.75C41.6002 32.75 41.6037 32.75 41.6073 32.75C41.6108 32.75 41.6143 32.75 41.6179 32.75C41.6214 32.75 41.6249 32.75 41.6284 32.75C41.632 32.75 41.6355 32.75 41.639 32.75C41.6425 32.75 41.646 32.75 41.6495 32.75C41.653 32.75 41.6565 32.75 41.6599 32.75C41.6634 32.75 41.6669 32.75 41.6704 32.75C41.6738 32.75 41.6773 32.75 41.6808 32.75C41.6842 32.75 41.6877 32.75 41.6911 32.75C41.6946 32.75 41.698 32.75 41.7015 32.75C41.7049 32.75 41.7083 32.75 41.7117 32.75C41.7152 32.75 41.7186 32.75 41.722 32.75C41.7254 32.75 41.7288 32.75 41.7322 32.75C41.7356 32.75 41.739 32.75 41.7424 32.75C41.7458 32.75 41.7492 32.75 41.7526 32.75C41.7559 32.75 41.7593 32.75 41.7627 32.75C41.766 32.75 41.7694 32.75 41.7728 32.75C41.7761 32.75 41.7795 32.75 41.7828 32.75C41.7861 32.75 41.7895 32.75 41.7928 32.75C41.7961 32.75 41.7995 32.75 41.8028 32.75C41.8061 32.75 41.8094 32.75 41.8127 32.75C41.816 32.75 41.8193 32.75 41.8226 32.75C41.8259 32.75 41.8292 32.75 41.8325 32.75C41.8358 32.75 41.8391 32.75 41.8423 32.75C41.8456 32.75 41.8489 32.75 41.8521 32.75C41.8554 32.75 41.8587 32.75 41.8619 32.75C41.8652 32.75 41.8684 32.75 41.8716 32.75C41.8749 32.75 41.8781 32.75 41.8813 32.75C41.8846 32.75 41.8878 32.75 41.891 32.75C41.8942 32.75 41.8974 32.75 41.9006 32.75C41.9038 32.75 41.907 32.75 41.9102 32.75C41.9134 32.75 41.9166 32.75 41.9198 32.75C41.923 32.75 41.9262 32.75 41.9293 32.75C41.9325 32.75 41.9357 32.75 41.9388 32.75C41.942 32.75 41.9451 32.75 41.9483 32.75C41.9514 32.75 41.9546 32.75 41.9577 32.75C41.9608 32.75 41.964 32.75 41.9671 32.75C41.9702 32.75 41.9733 32.75 41.9765 32.75C41.9796 32.75 41.9827 32.75 41.9858 32.75C41.9889 32.75 41.992 32.75 41.9951 32.75C41.9982 32.75 42.0012 32.75 42.0043 32.75C42.0074 32.75 42.0105 32.75 42.0135 32.75C42.0166 32.75 42.0197 32.75 42.0227 32.75C42.0258 32.75 42.0288 32.75 42.0319 32.75C42.0349 32.75 42.038 32.75 42.041 32.75C42.044 32.75 42.0471 32.75 42.0501 32.75C42.0531 32.75 42.0561 32.75 42.0592 32.75C42.0622 32.75 42.0652 32.75 42.0682 32.75C42.0712 32.75 42.0742 32.75 42.0772 32.75C42.0802 32.75 42.0831 32.75 42.0861 32.75C42.0891 32.75 42.0921 32.75 42.095 32.75C42.098 32.75 42.101 32.75 42.1039 32.75C42.1069 32.75 42.1098 32.75 42.1128 32.75C42.1157 32.75 42.1187 32.75 42.1216 32.75C42.1245 32.75 42.1275 32.75 42.1304 32.75C42.1333 32.75 42.1362 32.75 42.1391 32.75C42.1421 32.75 42.145 32.75 42.1479 32.75C42.1508 32.75 42.1537 32.75 42.1566 32.75C42.1594 32.75 42.1623 32.75 42.1652 32.75C42.1681 32.75 42.171 32.75 42.1738 32.75C42.1767 32.75 42.1796 32.75 42.1824 32.75C42.1853 32.75 42.1881 32.75 42.191 32.75C42.1938 32.75 42.1967 32.75 42.1995 32.75C42.2023 32.75 42.2052 32.75 42.208 32.75C42.2108 32.75 42.2136 32.75 42.2165 32.75C42.2193 32.75 42.2221 32.75 42.2249 32.75C42.2277 32.75 42.2305 32.75 42.2333 32.75C42.2361 32.75 42.2389 32.75 42.2416 32.75C42.2444 32.75 42.2472 32.75 42.25 32.75C42.2527 32.75 42.2555 32.75 42.2583 32.75C42.261 32.75 42.2638 32.75 42.2665 32.75C42.2693 32.75 42.272 32.75 42.2748 32.75C42.2775 32.75 42.2802 32.75 42.283 32.75C42.2857 32.75 42.2884 32.75 42.2911 32.75C42.2939 32.75 42.2966 32.75 42.2993 32.75C42.302 32.75 42.3047 32.75 42.3074 32.75C42.3101 32.75 42.3128 32.75 42.3155 32.75C42.3181 32.75 42.3208 32.75 42.3235 32.75C42.3262 32.75 42.3288 32.75 42.3315 32.75C42.3342 32.75 42.3368 32.75 42.3395 32.75C42.3421 32.75 42.3448 32.75 42.3474 32.75C42.3501 32.75 42.3527 32.75 42.3553 32.75C42.358 32.75 42.3606 32.75 42.3632 32.75C42.3658 32.75 42.3684 32.75 42.3711 32.75C42.3737 32.75 42.3763 32.75 42.3789 32.75C42.3815 32.75 42.3841 32.75 42.3867 32.75C42.3892 32.75 42.3918 32.75 42.3944 32.75C42.397 32.75 42.3996 32.75 42.4021 32.75C42.4047 32.75 42.4073 32.75 42.4098 32.75C42.4124 32.75 42.4149 32.75 42.4175 32.75C42.42 32.75 42.4226 32.75 42.4251 32.75C42.4276 32.75 42.4302 32.75 42.4327 32.75C42.4352 32.75 42.4378 32.75 42.4403 32.75C42.4428 32.75 42.4453 32.75 42.4478 32.75C42.4503 32.75 42.4528 32.75 42.4553 32.75C42.4578 32.75 42.4603 32.75 42.4628 32.75C42.4653 32.75 42.4677 32.75 42.4702 32.75C42.4727 32.75 42.4752 32.75 42.4776 32.75C42.4801 32.75 42.4825 32.75 42.485 32.75C42.4875 32.75 42.4899 32.75 42.4923 32.75C42.4948 32.75 42.4972 32.75 42.4997 32.75C42.5021 32.75 42.5045 32.75 42.507 32.75C42.5094 32.75 42.5118 32.75 42.5142 32.75C42.5166 32.75 42.519 32.75 42.5214 32.75C42.5238 32.75 42.5262 32.75 42.5286 32.75C42.531 32.75 42.5334 32.75 42.5358 32.75C42.5382 32.75 42.5405 32.75 42.5429 32.75C42.5453 32.75 42.5477 32.75 42.55 32.75C42.5524 32.75 42.5547 32.75 42.5571 32.75C42.5594 32.75 42.5618 32.75 42.5641 32.75C42.5665 32.75 42.5688 32.75 42.5711 32.75C42.5735 32.75 42.5758 32.75 42.5781 32.75C42.5804 32.75 42.5827 32.75 42.5851 32.75C42.5874 32.75 42.5897 32.75 42.592 32.75C42.5943 32.75 42.5966 32.75 42.5989 32.75C42.6012 32.75 42.6034 32.75 42.6057 32.75C42.608 32.75 42.6103 32.75 42.6125 32.75C42.6148 32.75 42.6171 32.75 42.6193 32.75C42.6216 32.75 42.6239 32.75 42.6261 32.75C42.6284 32.75 42.6306 32.75 42.6328 32.75C42.6351 32.75 42.6373 32.75 42.6395 32.75C42.6418 32.75 42.644 32.75 42.6462 32.75C42.6484 32.75 42.6507 32.75 42.6529 32.75C42.6551 32.75 42.6573 32.75 42.6595 32.75C42.6617 32.75 42.6639 32.75 42.6661 32.75C42.6683 32.75 42.6705 32.75 42.6726 32.75C42.6748 32.75 42.677 32.75 42.6792 32.75C42.6813 32.75 42.6835 32.75 42.6857 32.75C42.6878 32.75 42.69 32.75 42.6921 32.75C42.6943 32.75 42.6964 32.75 42.6986 32.75C42.7007 32.75 42.7028 32.75 42.705 32.75C42.7071 32.75 42.7092 32.75 42.7113 32.75C42.7135 32.75 42.7156 32.75 42.7177 32.75C42.7198 32.75 42.7219 32.75 42.724 32.75C42.7261 32.75 42.7282 32.75 42.7303 32.75C42.7324 32.75 42.7345 32.75 42.7366 32.75C42.7387 32.75 42.7407 32.75 42.7428 32.75C42.7449 32.75 42.7469 32.75 42.749 32.75C42.7511 32.75 42.7531 32.75 42.7552 32.75C42.7572 32.75 42.7593 32.75 42.7613 32.75C42.7634 32.75 42.7654 32.75 42.7674 32.75C42.7695 32.75 42.7715 32.75 42.7735 32.75C42.7756 32.75 42.7776 32.75 42.7796 32.75C42.7816 32.75 42.7836 32.75 42.7856 32.75C42.7876 32.75 42.7896 32.75 42.7916 32.75C42.7936 32.75 42.7956 32.75 42.7976 32.75C42.7996 32.75 42.8015 32.75 42.8035 32.75C42.8055 32.75 42.8075 32.75 42.8094 32.75C42.8114 32.75 42.8134 32.75 42.8153 32.75C42.8173 32.75 42.8192 32.75 42.8212 32.75C42.8231 32.75 42.8251 32.75 42.827 32.75C42.8289 32.75 42.8309 32.75 42.8328 32.75C42.8347 32.75 42.8367 32.75 42.8386 32.75C42.8405 32.75 42.8424 32.75 42.8443 32.75C42.8462 32.75 42.8481 32.75 42.85 32.75C42.8519 32.75 42.8538 32.75 42.8557 32.75C42.8576 32.75 42.8595 32.75 42.8614 32.75C42.8633 32.75 42.8651 32.75 42.867 32.75C42.8689 32.75 42.8707 32.75 42.8726 32.75C42.8745 32.75 42.8763 32.75 42.8782 32.75C42.88 32.75 42.8819 32.75 42.8837 32.75C42.8856 32.75 42.8874 32.75 42.8892 32.75C42.8911 32.75 42.8929 32.75 42.8947 32.75C42.8965 32.75 42.8984 32.75 42.9002 32.75C42.902 32.75 42.9038 32.75 42.9056 32.75C42.9074 32.75 42.9092 32.75 42.911 32.75C42.9128 32.75 42.9146 32.75 42.9164 32.75C42.9182 32.75 42.92 32.75 42.9217 32.75C42.9235 32.75 42.9253 32.75 42.9271 32.75C42.9288 32.75 42.9306 32.75 42.9324 32.75C42.9341 32.75 42.9359 32.75 42.9376 32.75C42.9394 32.75 42.9411 32.75 42.9429 32.75C42.9446 32.75 42.9463 32.75 42.9481 32.75C42.9498 32.75 42.9515 32.75 42.9532 32.75C42.955 32.75 42.9567 32.75 42.9584 32.75C42.9601 32.75 42.9618 32.75 42.9635 32.75C42.9652 32.75 42.9669 32.75 42.9686 32.75C42.9703 32.75 42.972 32.75 42.9737 32.75C42.9754 32.75 42.9771 32.75 42.9787 32.75C42.9804 32.75 42.9821 32.75 42.9838 32.75C42.9854 32.75 42.9871 32.75 42.9888 32.75C42.9904 32.75 42.9921 32.75 42.9937 32.75C42.9954 32.75 42.997 32.75 42.9987 32.75C43.0003 32.75 43.0019 32.75 43.0036 32.75C43.0052 32.75 43.0068 32.75 43.0084 32.75C43.0101 32.75 43.0117 32.75 43.0133 32.75C43.0149 32.75 43.0165 32.75 43.0181 32.75C43.0197 32.75 43.0213 32.75 43.0229 32.75C43.0245 32.75 43.0261 32.75 43.0277 32.75C43.0293 32.75 43.0309 32.75 43.0325 32.75C43.034 32.75 43.0356 32.75 43.0372 32.75C43.0387 32.75 43.0403 32.75 43.0419 32.75C43.0434 32.75 43.045 32.75 43.0465 32.75C43.0481 32.75 43.0496 32.75 43.0512 32.75C43.0527 32.75 43.0543 32.75 43.0558 32.75C43.0573 32.75 43.0589 32.75 43.0604 32.75C43.0619 32.75 43.0634 32.75 43.0649 32.75C43.0665 32.75 43.068 32.75 43.0695 32.75C43.071 32.75 43.0725 32.75 43.074 32.75C43.0755 32.75 43.077 32.75 43.0785 32.75C43.08 32.75 43.0814 32.75 43.0829 32.75C43.0844 32.75 43.0859 32.75 43.0874 32.75C43.0888 32.75 43.0903 32.75 43.0918 32.75C43.0932 32.75 43.0947 32.75 43.0961 32.75C43.0976 32.75 43.099 32.75 43.1005 32.75C43.1019 32.75 43.1034 32.75 43.1048 32.75C43.1063 32.75 43.1077 32.75 43.1091 32.75C43.1105 32.75 43.112 32.75 43.1134 32.75C43.1148 32.75 43.1162 32.75 43.1176 32.75C43.1191 32.75 43.1205 32.75 43.1219 32.75C43.1233 32.75 43.1247 32.75 43.1261 32.75C43.1275 32.75 43.1288 32.75 43.1302 32.75C43.1316 32.75 43.133 32.75 43.1344 32.75C43.1358 32.75 43.1371 32.75 43.1385 32.75C43.1399 32.75 43.1412 32.75 43.1426 32.75C43.144 32.75 43.1453 32.75 43.1467 32.75C43.148 32.75 43.1494 32.75 43.1507 32.75C43.152 32.75 43.1534 32.75 43.1547 32.75C43.1561 32.75 43.1574 32.75 43.1587 32.75C43.16 32.75 43.1614 32.75 43.1627 32.75C43.164 32.75 43.1653 32.75 43.1666 32.75C43.1679 32.75 43.1692 32.75 43.1705 32.75C43.1718 32.75 43.1731 32.75 43.1744 32.75C43.1757 32.75 43.177 32.75 43.1783 32.75C43.1796 32.75 43.1809 32.75 43.1821 32.75C43.1834 32.75 43.1847 32.75 43.1859 32.75C43.1872 32.75 43.1885 32.75 43.1897 32.75C43.191 32.75 43.1922 32.75 43.1935 32.75C43.1947 32.75 43.196 32.75 43.1972 32.75C43.1985 32.75 43.1997 32.75 43.201 32.75C43.2022 32.75 43.2034 32.75 43.2046 32.75C43.2059 32.75 43.2071 32.75 43.2083 32.75C43.2095 32.75 43.2107 32.75 43.212 32.75C43.2132 32.75 43.2144 32.75 43.2156 32.75C43.2168 32.75 43.218 32.75 43.2192 32.75C43.2204 32.75 43.2215 32.75 43.2227 32.75C43.2239 32.75 43.2251 32.75 43.2263 32.75C43.2274 32.75 43.2286 32.75 43.2298 32.75C43.231 32.75 43.2321 32.75 43.2333 32.75C43.2344 32.75 43.2356 32.75 43.2367 32.75C43.2379 32.75 43.239 32.75 43.2402 32.75C43.2413 32.75 43.2425 32.75 43.2436 32.75C43.2447 32.75 43.2459 32.75 43.247 32.75C43.2481 32.75 43.2493 32.75 43.2504 32.75C43.2515 32.75 43.2526 32.75 43.2537 32.75C43.2548 32.75 43.2559 32.75 43.257 32.75C43.2582 32.75 43.2593 32.75 43.2603 32.75C43.2614 32.75 43.2625 32.75 43.2636 32.75C43.2647 32.75 43.2658 32.75 43.2669 32.75C43.268 32.75 43.269 32.75 43.2701 32.75C43.2712 32.75 43.2722 32.75 43.2733 32.75C43.2744 32.75 43.2754 32.75 43.2765 32.75C43.2775 32.75 43.2786 32.75 43.2796 32.75C43.2807 32.75 43.2817 32.75 43.2828 32.75C43.2838 32.75 43.2848 32.75 43.2859 32.75C43.2869 32.75 43.2879 32.75 43.289 32.75C43.29 32.75 43.291 32.75 43.292 32.75C43.293 32.75 43.2941 32.75 43.2951 32.75C43.2961 32.75 43.2971 32.75 43.2981 32.75C43.2991 32.75 43.3001 32.75 43.3011 32.75C43.3021 32.75 43.303 32.75 43.304 32.75C43.305 32.75 43.306 32.75 43.307 32.75C43.3079 32.75 43.3089 32.75 43.3099 32.75C43.3109 32.75 43.3118 32.75 43.3128 32.75C43.3137 32.75 43.3147 32.75 43.3157 32.75C43.3166 32.75 43.3176 32.75 43.3185 32.75C43.3195 32.75 43.3204 32.75 43.3213 32.75C43.3223 32.75 43.3232 32.75 43.3241 32.75C43.3251 32.75 43.326 32.75 43.3269 32.75C43.3278 32.75 43.3288 32.75 43.3297 32.75C43.3306 32.75 43.3315 32.75 43.3324 32.75C43.3333 32.75 43.3342 32.75 43.3351 32.75C43.336 32.75 43.3369 32.75 43.3378 32.75C43.3387 32.75 43.3396 32.75 43.3405 32.75C43.3414 32.75 43.3422 32.75 43.3431 32.75C43.344 32.75 43.3449 32.75 43.3457 32.75C43.3466 32.75 43.3475 32.75 43.3483 32.75C43.3492 32.75 43.3501 32.75 43.3509 32.75C43.3518 32.75 43.3526 32.75 43.3535 32.75C43.3543 32.75 43.3552 32.75 43.356 32.75C43.3568 32.75 43.3577 32.75 43.3585 32.75C43.3593 32.75 43.3602 32.75 43.361 32.75C43.3618 32.75 43.3626 32.75 43.3634 32.75C43.3643 32.75 43.3651 32.75 43.3659 32.75C43.3667 32.75 43.3675 32.75 43.3683 32.75C43.3691 32.75 43.3699 32.75 43.3707 32.75C43.3715 32.75 43.3723 32.75 43.3731 32.75C43.3739 32.75 43.3746 32.75 43.3754 32.75C43.3762 32.75 43.377 32.75 43.3778 32.75C43.3785 32.75 43.3793 32.75 43.3801 32.75C43.3808 32.75 43.3816 32.75 43.3823 32.75C43.3831 32.75 43.3839 32.75 43.3846 32.75C43.3854 32.75 43.3861 32.75 43.3869 32.75C43.3876 32.75 43.3883 32.75 43.3891 32.75C43.3898 32.75 43.3905 32.75 43.3913 32.75C43.392 32.75 43.3927 32.75 43.3934 32.75C43.3942 32.75 43.3949 32.75 43.3956 32.75C43.3963 32.75 43.397 32.75 43.3977 32.75C43.3984 32.75 43.3991 32.75 43.3998 32.75C43.4005 32.75 43.4012 32.75 43.4019 32.75C43.4026 32.75 43.4033 32.75 43.404 32.75C43.4047 32.75 43.4054 32.75 43.406 32.75C43.4067 32.75 43.4074 32.75 43.4081 32.75C43.4087 32.75 43.4094 32.75 43.4101 32.75C43.4107 32.75 43.4114 32.75 43.412 32.75C43.4127 32.75 43.4134 32.75 43.414 32.75C43.4147 32.75 43.4153 32.75 43.4159 32.75C43.4166 32.75 43.4172 32.75 43.4179 32.75C43.4185 32.75 43.4191 32.75 43.4198 32.75C43.4204 32.75 43.421 32.75 43.4216 32.75C43.4223 32.75 43.4229 32.75 43.4235 32.75C43.4241 32.75 43.4247 32.75 43.4253 32.75C43.4259 32.75 43.4265 32.75 43.4271 32.75C43.4277 32.75 43.4283 32.75 43.4289 32.75C43.4295 32.75 43.4301 32.75 43.4307 32.75C43.4313 32.75 43.4319 32.75 43.4324 32.75C43.433 32.75 43.4336 32.75 43.4342 32.75C43.4347 32.75 43.4353 32.75 43.4359 32.75C43.4364 32.75 43.437 32.75 43.4376 32.75C43.4381 32.75 43.4387 32.75 43.4392 32.75C43.4398 32.75 43.4403 32.75 43.4409 32.75C43.4414 32.75 43.442 32.75 43.4425 32.75C43.443 32.75 43.4436 32.75 43.4441 32.75C43.4446 32.75 43.4452 32.75 43.4457 32.75C43.4462 32.75 43.4467 32.75 43.4472 32.75C43.4478 32.75 43.4483 32.75 43.4488 32.75C43.4493 32.75 43.4498 32.75 43.4503 32.75C43.4508 32.75 43.4513 32.75 43.4518 32.75C43.4523 32.75 43.4528 32.75 43.4533 32.75C43.4538 32.75 43.4543 32.75 43.4548 32.75C43.4552 32.75 43.4557 32.75 43.4562 32.75C43.4567 32.75 43.4571 32.75 43.4576 32.75C43.4581 32.75 43.4586 32.75 43.459 32.75C43.4595 32.75 43.4599 32.75 43.4604 32.75C43.4609 32.75 43.4613 32.75 43.4618 32.75C43.4622 32.75 43.4627 32.75 43.4631 32.75C43.4635 32.75 43.464 32.75 43.4644 32.75C43.4649 32.75 43.4653 32.75 43.4657 32.75C43.4662 32.75 43.4666 32.75 43.467 32.75C43.4674 32.75 43.4679 32.75 43.4683 32.75C43.4687 32.75 43.4691 32.75 43.4695 32.75C43.4699 32.75 43.4703 32.75 43.4707 32.75C43.4711 32.75 43.4715 32.75 43.4719 32.75C43.4723 32.75 43.4727 32.75 43.4731 32.75C43.4735 32.75 43.4739 32.75 43.4743 32.75C43.4747 32.75 43.4751 32.75 43.4754 32.75C43.4758 32.75 43.4762 32.75 43.4766 32.75C43.4769 32.75 43.4773 32.75 43.4777 32.75C43.478 32.75 43.4784 32.75 43.4787 32.75C43.4791 32.75 43.4795 32.75 43.4798 32.75C43.4802 32.75 43.4805 32.75 43.4809 32.75C43.4812 32.75 43.4816 32.75 43.4819 32.75C43.4822 32.75 43.4826 32.75 43.4829 32.75C43.4832 32.75 43.4836 32.75 43.4839 32.75C43.4842 32.75 43.4845 32.75 43.4849 32.75C43.4852 32.75 43.4855 32.75 43.4858 32.75C43.4861 32.75 43.4864 32.75 43.4867 32.75C43.4871 32.75 43.4874 32.75 43.4877 32.75C43.488 32.75 43.4883 32.75 43.4886 32.75C43.4889 32.75 43.4891 32.75 43.4894 32.75C43.4897 32.75 43.49 32.75 43.4903 32.75C43.4906 32.75 43.4909 32.75 43.4911 32.75C43.4914 32.75 43.4917 32.75 43.492 32.75C43.4922 32.75 43.4925 32.75 43.4928 32.75C43.493 32.75 43.4933 32.75 43.4935 32.75C43.4938 32.75 43.4941 32.75 43.4943 32.75C43.4946 32.75 43.4948 32.75 43.4951 32.75C43.4953 32.75 43.4955 32.75 43.4958 32.75C43.496 32.75 43.4963 32.75 43.4965 32.75C43.4967 32.75 43.497 32.75 43.4972 32.75C43.4974 32.75 43.4976 32.75 43.4979 32.75C43.4981 32.75 43.4983 32.75 43.4985 32.75C43.4987 32.75 43.4989 32.75 43.4991 32.75V31.5714V30.3928C43.4989 30.3928 43.4987 30.3928 43.4985 30.3928C43.4983 30.3928 43.4981 30.3928 43.4979 30.3928C43.4976 30.3928 43.4974 30.3928 43.4972 30.3928C43.497 30.3928 43.4967 30.3928 43.4965 30.3928C43.4963 30.3928 43.496 30.3928 43.4958 30.3928C43.4955 30.3928 43.4953 30.3928 43.4951 30.3928C43.4948 30.3928 43.4946 30.3928 43.4943 30.3928C43.4941 30.3928 43.4938 30.3928 43.4935 30.3928C43.4933 30.3928 43.493 30.3928 43.4928 30.3928C43.4925 30.3928 43.4922 30.3928 43.492 30.3928C43.4917 30.3928 43.4914 30.3928 43.4911 30.3928C43.4909 30.3928 43.4906 30.3928 43.4903 30.3928C43.49 30.3928 43.4897 30.3928 43.4894 30.3928C43.4891 30.3928 43.4889 30.3928 43.4886 30.3928C43.4883 30.3928 43.488 30.3928 43.4877 30.3928C43.4874 30.3928 43.4871 30.3928 43.4867 30.3928C43.4864 30.3928 43.4861 30.3928 43.4858 30.3928C43.4855 30.3928 43.4852 30.3928 43.4849 30.3928C43.4845 30.3928 43.4842 30.3928 43.4839 30.3928C43.4836 30.3928 43.4832 30.3928 43.4829 30.3928C43.4826 30.3928 43.4822 30.3928 43.4819 30.3928C43.4816 30.3928 43.4812 30.3928 43.4809 30.3928C43.4805 30.3928 43.4802 30.3928 43.4798 30.3928C43.4795 30.3928 43.4791 30.3928 43.4787 30.3928C43.4784 30.3928 43.478 30.3928 43.4777 30.3928C43.4773 30.3928 43.4769 30.3928 43.4766 30.3928C43.4762 30.3928 43.4758 30.3928 43.4754 30.3928C43.4751 30.3928 43.4747 30.3928 43.4743 30.3928C43.4739 30.3928 43.4735 30.3928 43.4731 30.3928C43.4727 30.3928 43.4723 30.3928 43.4719 30.3928C43.4715 30.3928 43.4711 30.3928 43.4707 30.3928C43.4703 30.3928 43.4699 30.3928 43.4695 30.3928C43.4691 30.3928 43.4687 30.3928 43.4683 30.3928C43.4679 30.3928 43.4674 30.3928 43.467 30.3928C43.4666 30.3928 43.4662 30.3928 43.4657 30.3928C43.4653 30.3928 43.4649 30.3928 43.4644 30.3928C43.464 30.3928 43.4635 30.3928 43.4631 30.3928C43.4627 30.3928 43.4622 30.3928 43.4618 30.3928C43.4613 30.3928 43.4609 30.3928 43.4604 30.3928C43.4599 30.3928 43.4595 30.3928 43.459 30.3928C43.4586 30.3928 43.4581 30.3928 43.4576 30.3928C43.4571 30.3928 43.4567 30.3928 43.4562 30.3928C43.4557 30.3928 43.4552 30.3928 43.4548 30.3928C43.4543 30.3928 43.4538 30.3928 43.4533 30.3928C43.4528 30.3928 43.4523 30.3928 43.4518 30.3928C43.4513 30.3928 43.4508 30.3928 43.4503 30.3928C43.4498 30.3928 43.4493 30.3928 43.4488 30.3928C43.4483 30.3928 43.4478 30.3928 43.4472 30.3928C43.4467 30.3928 43.4462 30.3928 43.4457 30.3928C43.4452 30.3928 43.4446 30.3928 43.4441 30.3928C43.4436 30.3928 43.443 30.3928 43.4425 30.3928C43.442 30.3928 43.4414 30.3928 43.4409 30.3928C43.4403 30.3928 43.4398 30.3928 43.4392 30.3928C43.4387 30.3928 43.4381 30.3928 43.4376 30.3928C43.437 30.3928 43.4364 30.3928 43.4359 30.3928C43.4353 30.3928 43.4347 30.3928 43.4342 30.3928C43.4336 30.3928 43.433 30.3928 43.4324 30.3928C43.4319 30.3928 43.4313 30.3928 43.4307 30.3928C43.4301 30.3928 43.4295 30.3928 43.4289 30.3928C43.4283 30.3928 43.4277 30.3928 43.4271 30.3928C43.4265 30.3928 43.4259 30.3928 43.4253 30.3928C43.4247 30.3928 43.4241 30.3928 43.4235 30.3928C43.4229 30.3928 43.4223 30.3928 43.4216 30.3928C43.421 30.3928 43.4204 30.3928 43.4198 30.3928C43.4191 30.3928 43.4185 30.3928 43.4179 30.3928C43.4172 30.3928 43.4166 30.3928 43.4159 30.3928C43.4153 30.3928 43.4147 30.3928 43.414 30.3928C43.4134 30.3928 43.4127 30.3928 43.412 30.3928C43.4114 30.3928 43.4107 30.3928 43.4101 30.3928C43.4094 30.3928 43.4087 30.3928 43.4081 30.3928C43.4074 30.3928 43.4067 30.3928 43.406 30.3928C43.4054 30.3928 43.4047 30.3928 43.404 30.3928C43.4033 30.3928 43.4026 30.3928 43.4019 30.3928C43.4012 30.3928 43.4005 30.3928 43.3998 30.3928C43.3991 30.3928 43.3984 30.3928 43.3977 30.3928C43.397 30.3928 43.3963 30.3928 43.3956 30.3928C43.3949 30.3928 43.3942 30.3928 43.3934 30.3928C43.3927 30.3928 43.392 30.3928 43.3913 30.3928C43.3905 30.3928 43.3898 30.3928 43.3891 30.3928C43.3883 30.3928 43.3876 30.3928 43.3869 30.3928C43.3861 30.3928 43.3854 30.3928 43.3846 30.3928C43.3839 30.3928 43.3831 30.3928 43.3823 30.3928C43.3816 30.3928 43.3808 30.3928 43.3801 30.3928C43.3793 30.3928 43.3785 30.3928 43.3778 30.3928C43.377 30.3928 43.3762 30.3928 43.3754 30.3928C43.3746 30.3928 43.3739 30.3928 43.3731 30.3928C43.3723 30.3928 43.3715 30.3928 43.3707 30.3928C43.3699 30.3928 43.3691 30.3928 43.3683 30.3928C43.3675 30.3928 43.3667 30.3928 43.3659 30.3928C43.3651 30.3928 43.3643 30.3928 43.3634 30.3928C43.3626 30.3928 43.3618 30.3928 43.361 30.3928C43.3602 30.3928 43.3593 30.3928 43.3585 30.3928C43.3577 30.3928 43.3568 30.3928 43.356 30.3928C43.3552 30.3928 43.3543 30.3928 43.3535 30.3928C43.3526 30.3928 43.3518 30.3928 43.3509 30.3928C43.3501 30.3928 43.3492 30.3928 43.3483 30.3928C43.3475 30.3928 43.3466 30.3928 43.3457 30.3928C43.3449 30.3928 43.344 30.3928 43.3431 30.3928C43.3422 30.3928 43.3414 30.3928 43.3405 30.3928C43.3396 30.3928 43.3387 30.3928 43.3378 30.3928C43.3369 30.3928 43.336 30.3928 43.3351 30.3928C43.3342 30.3928 43.3333 30.3928 43.3324 30.3928C43.3315 30.3928 43.3306 30.3928 43.3297 30.3928C43.3288 30.3928 43.3278 30.3928 43.3269 30.3928C43.326 30.3928 43.3251 30.3928 43.3241 30.3928C43.3232 30.3928 43.3223 30.3928 43.3213 30.3928C43.3204 30.3928 43.3195 30.3928 43.3185 30.3928C43.3176 30.3928 43.3166 30.3928 43.3157 30.3928C43.3147 30.3928 43.3137 30.3928 43.3128 30.3928C43.3118 30.3928 43.3109 30.3928 43.3099 30.3928C43.3089 30.3928 43.3079 30.3928 43.307 30.3928C43.306 30.3928 43.305 30.3928 43.304 30.3928C43.303 30.3928 43.3021 30.3928 43.3011 30.3928C43.3001 30.3928 43.2991 30.3928 43.2981 30.3928C43.2971 30.3928 43.2961 30.3928 43.2951 30.3928C43.2941 30.3928 43.293 30.3928 43.292 30.3928C43.291 30.3928 43.29 30.3928 43.289 30.3928C43.2879 30.3928 43.2869 30.3928 43.2859 30.3928C43.2848 30.3928 43.2838 30.3928 43.2828 30.3928C43.2817 30.3928 43.2807 30.3928 43.2796 30.3928C43.2786 30.3928 43.2775 30.3928 43.2765 30.3928C43.2754 30.3928 43.2744 30.3928 43.2733 30.3928C43.2722 30.3928 43.2712 30.3928 43.2701 30.3928C43.269 30.3928 43.268 30.3928 43.2669 30.3928C43.2658 30.3928 43.2647 30.3928 43.2636 30.3928C43.2625 30.3928 43.2614 30.3928 43.2603 30.3928C43.2593 30.3928 43.2582 30.3928 43.257 30.3928C43.2559 30.3928 43.2548 30.3928 43.2537 30.3928C43.2526 30.3928 43.2515 30.3928 43.2504 30.3928C43.2493 30.3928 43.2481 30.3928 43.247 30.3928C43.2459 30.3928 43.2447 30.3928 43.2436 30.3928C43.2425 30.3928 43.2413 30.3928 43.2402 30.3928C43.239 30.3928 43.2379 30.3928 43.2367 30.3928C43.2356 30.3928 43.2344 30.3928 43.2333 30.3928C43.2321 30.3928 43.231 30.3928 43.2298 30.3928C43.2286 30.3928 43.2274 30.3928 43.2263 30.3928C43.2251 30.3928 43.2239 30.3928 43.2227 30.3928C43.2215 30.3928 43.2204 30.3928 43.2192 30.3928C43.218 30.3928 43.2168 30.3928 43.2156 30.3928C43.2144 30.3928 43.2132 30.3928 43.212 30.3928C43.2107 30.3928 43.2095 30.3928 43.2083 30.3928C43.2071 30.3928 43.2059 30.3928 43.2046 30.3928C43.2034 30.3928 43.2022 30.3928 43.201 30.3928C43.1997 30.3928 43.1985 30.3928 43.1972 30.3928C43.196 30.3928 43.1947 30.3928 43.1935 30.3928C43.1922 30.3928 43.191 30.3928 43.1897 30.3928C43.1885 30.3928 43.1872 30.3928 43.1859 30.3928C43.1847 30.3928 43.1834 30.3928 43.1821 30.3928C43.1809 30.3928 43.1796 30.3928 43.1783 30.3928C43.177 30.3928 43.1757 30.3928 43.1744 30.3928C43.1731 30.3928 43.1718 30.3928 43.1705 30.3928C43.1692 30.3928 43.1679 30.3928 43.1666 30.3928C43.1653 30.3928 43.164 30.3928 43.1627 30.3928C43.1614 30.3928 43.16 30.3928 43.1587 30.3928C43.1574 30.3928 43.1561 30.3928 43.1547 30.3928C43.1534 30.3928 43.152 30.3928 43.1507 30.3928C43.1494 30.3928 43.148 30.3928 43.1467 30.3928C43.1453 30.3928 43.144 30.3928 43.1426 30.3928C43.1412 30.3928 43.1399 30.3928 43.1385 30.3928C43.1371 30.3928 43.1358 30.3928 43.1344 30.3928C43.133 30.3928 43.1316 30.3928 43.1302 30.3928C43.1288 30.3928 43.1275 30.3928 43.1261 30.3928C43.1247 30.3928 43.1233 30.3928 43.1219 30.3928C43.1205 30.3928 43.1191 30.3928 43.1176 30.3928C43.1162 30.3928 43.1148 30.3928 43.1134 30.3928C43.112 30.3928 43.1105 30.3928 43.1091 30.3928C43.1077 30.3928 43.1063 30.3928 43.1048 30.3928C43.1034 30.3928 43.1019 30.3928 43.1005 30.3928C43.099 30.3928 43.0976 30.3928 43.0961 30.3928C43.0947 30.3928 43.0932 30.3928 43.0918 30.3928C43.0903 30.3928 43.0888 30.3928 43.0874 30.3928C43.0859 30.3928 43.0844 30.3928 43.0829 30.3928C43.0814 30.3928 43.08 30.3928 43.0785 30.3928C43.077 30.3928 43.0755 30.3928 43.074 30.3928C43.0725 30.3928 43.071 30.3928 43.0695 30.3928C43.068 30.3928 43.0665 30.3928 43.0649 30.3928C43.0634 30.3928 43.0619 30.3928 43.0604 30.3928C43.0589 30.3928 43.0573 30.3928 43.0558 30.3928C43.0543 30.3928 43.0527 30.3928 43.0512 30.3928C43.0496 30.3928 43.0481 30.3928 43.0465 30.3928C43.045 30.3928 43.0434 30.3928 43.0419 30.3928C43.0403 30.3928 43.0387 30.3928 43.0372 30.3928C43.0356 30.3928 43.034 30.3928 43.0325 30.3928C43.0309 30.3928 43.0293 30.3928 43.0277 30.3928C43.0261 30.3928 43.0245 30.3928 43.0229 30.3928C43.0213 30.3928 43.0197 30.3928 43.0181 30.3928C43.0165 30.3928 43.0149 30.3928 43.0133 30.3928C43.0117 30.3928 43.0101 30.3928 43.0084 30.3928C43.0068 30.3928 43.0052 30.3928 43.0036 30.3928C43.0019 30.3928 43.0003 30.3928 42.9987 30.3928C42.997 30.3928 42.9954 30.3928 42.9937 30.3928C42.9921 30.3928 42.9904 30.3928 42.9888 30.3928C42.9871 30.3928 42.9854 30.3928 42.9838 30.3928C42.9821 30.3928 42.9804 30.3928 42.9787 30.3928C42.9771 30.3928 42.9754 30.3928 42.9737 30.3928C42.972 30.3928 42.9703 30.3928 42.9686 30.3928C42.9669 30.3928 42.9652 30.3928 42.9635 30.3928C42.9618 30.3928 42.9601 30.3928 42.9584 30.3928C42.9567 30.3928 42.955 30.3928 42.9532 30.3928C42.9515 30.3928 42.9498 30.3928 42.9481 30.3928C42.9463 30.3928 42.9446 30.3928 42.9429 30.3928C42.9411 30.3928 42.9394 30.3928 42.9376 30.3928C42.9359 30.3928 42.9341 30.3928 42.9324 30.3928C42.9306 30.3928 42.9288 30.3928 42.9271 30.3928C42.9253 30.3928 42.9235 30.3928 42.9217 30.3928C42.92 30.3928 42.9182 30.3928 42.9164 30.3928C42.9146 30.3928 42.9128 30.3928 42.911 30.3928C42.9092 30.3928 42.9074 30.3928 42.9056 30.3928C42.9038 30.3928 42.902 30.3928 42.9002 30.3928C42.8984 30.3928 42.8965 30.3928 42.8947 30.3928C42.8929 30.3928 42.8911 30.3928 42.8892 30.3928C42.8874 30.3928 42.8856 30.3928 42.8837 30.3928C42.8819 30.3928 42.88 30.3928 42.8782 30.3928C42.8763 30.3928 42.8745 30.3928 42.8726 30.3928C42.8707 30.3928 42.8689 30.3928 42.867 30.3928C42.8651 30.3928 42.8633 30.3928 42.8614 30.3928C42.8595 30.3928 42.8576 30.3928 42.8557 30.3928C42.8538 30.3928 42.8519 30.3928 42.85 30.3928C42.8481 30.3928 42.8462 30.3928 42.8443 30.3928C42.8424 30.3928 42.8405 30.3928 42.8386 30.3928C42.8367 30.3928 42.8347 30.3928 42.8328 30.3928C42.8309 30.3928 42.8289 30.3928 42.827 30.3928C42.8251 30.3928 42.8231 30.3928 42.8212 30.3928C42.8192 30.3928 42.8173 30.3928 42.8153 30.3928C42.8134 30.3928 42.8114 30.3928 42.8094 30.3928C42.8075 30.3928 42.8055 30.3928 42.8035 30.3928C42.8015 30.3928 42.7996 30.3928 42.7976 30.3928C42.7956 30.3928 42.7936 30.3928 42.7916 30.3928C42.7896 30.3928 42.7876 30.3928 42.7856 30.3928C42.7836 30.3928 42.7816 30.3928 42.7796 30.3928C42.7776 30.3928 42.7756 30.3928 42.7735 30.3928C42.7715 30.3928 42.7695 30.3928 42.7674 30.3928C42.7654 30.3928 42.7634 30.3928 42.7613 30.3928C42.7593 30.3928 42.7572 30.3928 42.7552 30.3928C42.7531 30.3928 42.7511 30.3928 42.749 30.3928C42.7469 30.3928 42.7449 30.3928 42.7428 30.3928C42.7407 30.3928 42.7387 30.3928 42.7366 30.3928C42.7345 30.3928 42.7324 30.3928 42.7303 30.3928C42.7282 30.3928 42.7261 30.3928 42.724 30.3928C42.7219 30.3928 42.7198 30.3928 42.7177 30.3928C42.7156 30.3928 42.7135 30.3928 42.7113 30.3928C42.7092 30.3928 42.7071 30.3928 42.705 30.3928C42.7028 30.3928 42.7007 30.3928 42.6986 30.3928C42.6964 30.3928 42.6943 30.3928 42.6921 30.3928C42.69 30.3928 42.6878 30.3928 42.6857 30.3928C42.6835 30.3928 42.6813 30.3928 42.6792 30.3928C42.677 30.3928 42.6748 30.3928 42.6726 30.3928C42.6705 30.3928 42.6683 30.3928 42.6661 30.3928C42.6639 30.3928 42.6617 30.3928 42.6595 30.3928C42.6573 30.3928 42.6551 30.3928 42.6529 30.3928C42.6507 30.3928 42.6484 30.3928 42.6462 30.3928C42.644 30.3928 42.6418 30.3928 42.6395 30.3928C42.6373 30.3928 42.6351 30.3928 42.6328 30.3928C42.6306 30.3928 42.6284 30.3928 42.6261 30.3928C42.6239 30.3928 42.6216 30.3928 42.6193 30.3928C42.6171 30.3928 42.6148 30.3928 42.6125 30.3928C42.6103 30.3928 42.608 30.3928 42.6057 30.3928C42.6034 30.3928 42.6012 30.3928 42.5989 30.3928C42.5966 30.3928 42.5943 30.3928 42.592 30.3928C42.5897 30.3928 42.5874 30.3928 42.5851 30.3928C42.5827 30.3928 42.5804 30.3928 42.5781 30.3928C42.5758 30.3928 42.5735 30.3928 42.5711 30.3928C42.5688 30.3928 42.5665 30.3928 42.5641 30.3928C42.5618 30.3928 42.5594 30.3928 42.5571 30.3928C42.5547 30.3928 42.5524 30.3928 42.55 30.3928C42.5477 30.3928 42.5453 30.3928 42.5429 30.3928C42.5405 30.3928 42.5382 30.3928 42.5358 30.3928C42.5334 30.3928 42.531 30.3928 42.5286 30.3928C42.5262 30.3928 42.5238 30.3928 42.5214 30.3928C42.519 30.3928 42.5166 30.3928 42.5142 30.3928C42.5118 30.3928 42.5094 30.3928 42.507 30.3928C42.5045 30.3928 42.5021 30.3928 42.4997 30.3928C42.4972 30.3928 42.4948 30.3928 42.4923 30.3928C42.4899 30.3928 42.4875 30.3928 42.485 30.3928C42.4825 30.3928 42.4801 30.3928 42.4776 30.3928C42.4752 30.3928 42.4727 30.3928 42.4702 30.3928C42.4677 30.3928 42.4653 30.3928 42.4628 30.3928C42.4603 30.3928 42.4578 30.3928 42.4553 30.3928C42.4528 30.3928 42.4503 30.3928 42.4478 30.3928C42.4453 30.3928 42.4428 30.3928 42.4403 30.3928C42.4378 30.3928 42.4352 30.3928 42.4327 30.3928C42.4302 30.3928 42.4276 30.3928 42.4251 30.3928C42.4226 30.3928 42.42 30.3928 42.4175 30.3928C42.4149 30.3928 42.4124 30.3928 42.4098 30.3928C42.4073 30.3928 42.4047 30.3928 42.4021 30.3928C42.3996 30.3928 42.397 30.3928 42.3944 30.3928C42.3918 30.3928 42.3892 30.3928 42.3867 30.3928C42.3841 30.3928 42.3815 30.3928 42.3789 30.3928C42.3763 30.3928 42.3737 30.3928 42.3711 30.3928C42.3684 30.3928 42.3658 30.3928 42.3632 30.3928C42.3606 30.3928 42.358 30.3928 42.3553 30.3928C42.3527 30.3928 42.3501 30.3928 42.3474 30.3928C42.3448 30.3928 42.3421 30.3928 42.3395 30.3928C42.3368 30.3928 42.3342 30.3928 42.3315 30.3928C42.3288 30.3928 42.3262 30.3928 42.3235 30.3928C42.3208 30.3928 42.3181 30.3928 42.3155 30.3928C42.3128 30.3928 42.3101 30.3928 42.3074 30.3928C42.3047 30.3928 42.302 30.3928 42.2993 30.3928C42.2966 30.3928 42.2939 30.3928 42.2911 30.3928C42.2884 30.3928 42.2857 30.3928 42.283 30.3928C42.2802 30.3928 42.2775 30.3928 42.2748 30.3928C42.272 30.3928 42.2693 30.3928 42.2665 30.3928C42.2638 30.3928 42.261 30.3928 42.2583 30.3928C42.2555 30.3928 42.2527 30.3928 42.25 30.3928C42.2472 30.3928 42.2444 30.3928 42.2416 30.3928C42.2389 30.3928 42.2361 30.3928 42.2333 30.3928C42.2305 30.3928 42.2277 30.3928 42.2249 30.3928C42.2221 30.3928 42.2193 30.3928 42.2165 30.3928C42.2136 30.3928 42.2108 30.3928 42.208 30.3928C42.2052 30.3928 42.2023 30.3928 42.1995 30.3928C42.1967 30.3928 42.1938 30.3928 42.191 30.3928C42.1881 30.3928 42.1853 30.3928 42.1824 30.3928C42.1796 30.3928 42.1767 30.3928 42.1738 30.3928C42.171 30.3928 42.1681 30.3928 42.1652 30.3928C42.1623 30.3928 42.1594 30.3928 42.1566 30.3928C42.1537 30.3928 42.1508 30.3928 42.1479 30.3928C42.145 30.3928 42.1421 30.3928 42.1391 30.3928C42.1362 30.3928 42.1333 30.3928 42.1304 30.3928C42.1275 30.3928 42.1245 30.3928 42.1216 30.3928C42.1187 30.3928 42.1157 30.3928 42.1128 30.3928C42.1098 30.3928 42.1069 30.3928 42.1039 30.3928C42.101 30.3928 42.098 30.3928 42.095 30.3928C42.0921 30.3928 42.0891 30.3928 42.0861 30.3928C42.0831 30.3928 42.0802 30.3928 42.0772 30.3928C42.0742 30.3928 42.0712 30.3928 42.0682 30.3928C42.0652 30.3928 42.0622 30.3928 42.0592 30.3928C42.0561 30.3928 42.0531 30.3928 42.0501 30.3928C42.0471 30.3928 42.044 30.3928 42.041 30.3928C42.038 30.3928 42.0349 30.3928 42.0319 30.3928C42.0288 30.3928 42.0258 30.3928 42.0227 30.3928C42.0197 30.3928 42.0166 30.3928 42.0135 30.3928C42.0105 30.3928 42.0074 30.3928 42.0043 30.3928C42.0012 30.3928 41.9982 30.3928 41.9951 30.3928C41.992 30.3928 41.9889 30.3928 41.9858 30.3928C41.9827 30.3928 41.9796 30.3928 41.9765 30.3928C41.9733 30.3928 41.9702 30.3928 41.9671 30.3928C41.964 30.3928 41.9608 30.3928 41.9577 30.3928C41.9546 30.3928 41.9514 30.3928 41.9483 30.3928C41.9451 30.3928 41.942 30.3928 41.9388 30.3928C41.9357 30.3928 41.9325 30.3928 41.9293 30.3928C41.9262 30.3928 41.923 30.3928 41.9198 30.3928C41.9166 30.3928 41.9134 30.3928 41.9102 30.3928C41.907 30.3928 41.9038 30.3928 41.9006 30.3928C41.8974 30.3928 41.8942 30.3928 41.891 30.3928C41.8878 30.3928 41.8846 30.3928 41.8813 30.3928C41.8781 30.3928 41.8749 30.3928 41.8716 30.3928C41.8684 30.3928 41.8652 30.3928 41.8619 30.3928C41.8587 30.3928 41.8554 30.3928 41.8521 30.3928C41.8489 30.3928 41.8456 30.3928 41.8423 30.3928C41.8391 30.3928 41.8358 30.3928 41.8325 30.3928C41.8292 30.3928 41.8259 30.3928 41.8226 30.3928C41.8193 30.3928 41.816 30.3928 41.8127 30.3928C41.8094 30.3928 41.8061 30.3928 41.8028 30.3928C41.7995 30.3928 41.7961 30.3928 41.7928 30.3928C41.7895 30.3928 41.7861 30.3928 41.7828 30.3928C41.7795 30.3928 41.7761 30.3928 41.7728 30.3928C41.7694 30.3928 41.766 30.3928 41.7627 30.3928C41.7593 30.3928 41.7559 30.3928 41.7526 30.3928C41.7492 30.3928 41.7458 30.3928 41.7424 30.3928C41.739 30.3928 41.7356 30.3928 41.7322 30.3928C41.7288 30.3928 41.7254 30.3928 41.722 30.3928C41.7186 30.3928 41.7152 30.3928 41.7117 30.3928C41.7083 30.3928 41.7049 30.3928 41.7015 30.3928C41.698 30.3928 41.6946 30.3928 41.6911 30.3928C41.6877 30.3928 41.6842 30.3928 41.6808 30.3928C41.6773 30.3928 41.6738 30.3928 41.6704 30.3928C41.6669 30.3928 41.6634 30.3928 41.6599 30.3928C41.6565 30.3928 41.653 30.3928 41.6495 30.3928C41.646 30.3928 41.6425 30.3928 41.639 30.3928C41.6355 30.3928 41.632 30.3928 41.6284 30.3928C41.6249 30.3928 41.6214 30.3928 41.6179 30.3928C41.6143 30.3928 41.6108 30.3928 41.6073 30.3928C41.6037 30.3928 41.6002 30.3928 41.5966 30.3928C41.5931 30.3928 41.5895 30.3928 41.5859 30.3928C41.5824 30.3928 41.5788 30.3928 41.5752 30.3928C41.5716 30.3928 41.5681 30.3928 41.5645 30.3928C41.5609 30.3928 41.5573 30.3928 41.5537 30.3928C41.5501 30.3928 41.5465 30.3928 41.5429 30.3928C41.5392 30.3928 41.5356 30.3928 41.532 30.3928C41.5284 30.3928 41.5247 30.3928 41.5211 30.3928C41.5175 30.3928 41.5138 30.3928 41.5102 30.3928C41.5065 30.3928 41.5029 30.3928 41.4992 30.3928C41.4955 30.3928 41.4919 30.3928 41.4882 30.3928C41.4845 30.3928 41.4809 30.3928 41.4772 30.3928C41.4735 30.3928 41.4698 30.3928 41.4661 30.3928C41.4624 30.3928 41.4587 30.3928 41.455 30.3928C41.4513 30.3928 41.4476 30.3928 41.4438 30.3928C41.4401 30.3928 41.4364 30.3928 41.4326 30.3928C41.4289 30.3928 41.4252 30.3928 41.4214 30.3928C41.4177 30.3928 41.4139 30.3928 41.4102 30.3928C41.4064 30.3928 41.4026 30.3928 41.3989 30.3928C41.3951 30.3928 41.3913 30.3928 41.3875 30.3928C41.3838 30.3928 41.38 30.3928 41.3762 30.3928C41.3724 30.3928 41.3686 30.3928 41.3648 30.3928C41.361 30.3928 41.3572 30.3928 41.3533 30.3928C41.3495 30.3928 41.3457 30.3928 41.3419 30.3928C41.338 30.3928 41.3342 30.3928 41.3304 30.3928C41.3265 30.3928 41.3227 30.3928 41.3188 30.3928C41.3149 30.3928 41.3111 30.3928 41.3072 30.3928C41.3033 30.3928 41.2995 30.3928 41.2956 30.3928C41.2917 30.3928 41.2878 30.3928 41.2839 30.3928C41.28 30.3928 41.2761 30.3928 41.2722 30.3928C41.2683 30.3928 41.2644 30.3928 41.2605 30.3928C41.2566 30.3928 41.2527 30.3928 41.2487 30.3928C41.2448 30.3928 41.2409 30.3928 41.2369 30.3928C41.233 30.3928 41.229 30.3928 41.2251 30.3928C41.2211 30.3928 41.2172 30.3928 41.2132 30.3928C41.2092 30.3928 41.2053 30.3928 41.2013 30.3928C41.1973 30.3928 41.1933 30.3928 41.1893 30.3928C41.1853 30.3928 41.1813 30.3928 41.1773 30.3928C41.1733 30.3928 41.1693 30.3928 41.1653 30.3928C41.1613 30.3928 41.1572 30.3928 41.1532 30.3928C41.1492 30.3928 41.1452 30.3928 41.1411 30.3928C41.1371 30.3928 41.133 30.3928 41.129 30.3928C41.1249 30.3928 41.1209 30.3928 41.1168 30.3928C41.1127 30.3928 41.1086 30.3928 41.1046 30.3928C41.1005 30.3928 41.0964 30.3928 41.0923 30.3928C41.0882 30.3928 41.0841 30.3928 41.08 30.3928C41.0759 30.3928 41.0718 30.3928 41.0677 30.3928C41.0636 30.3928 41.0594 30.3928 41.0553 30.3928C41.0512 30.3928 41.047 30.3928 41.0429 30.3928C41.0388 30.3928 41.0346 30.3928 41.0305 30.3928C41.0263 30.3928 41.0221 30.3928 41.018 30.3928C41.0138 30.3928 41.0096 30.3928 41.0054 30.3928C41.0013 30.3928 40.9971 30.3928 40.9929 30.3928C40.9887 30.3928 40.9845 30.3928 40.9803 30.3928C40.9761 30.3928 40.9719 30.3928 40.9677 30.3928C40.9634 30.3928 40.9592 30.3928 40.955 30.3928C40.9507 30.3928 40.9465 30.3928 40.9423 30.3928C40.938 30.3928 40.9338 30.3928 40.9295 30.3928C40.9253 30.3928 40.921 30.3928 40.9167 30.3928C40.9125 30.3928 40.9082 30.3928 40.9039 30.3928C40.8996 30.3928 40.8953 30.3928 40.891 30.3928C40.8867 30.3928 40.8824 30.3928 40.8781 30.3928C40.8738 30.3928 40.8695 30.3928 40.8652 30.3928C40.8609 30.3928 40.8565 30.3928 40.8522 30.3928C40.8479 30.3928 40.8435 30.3928 40.8392 30.3928C40.8348 30.3928 40.8305 30.3928 40.8261 30.3928C40.8218 30.3928 40.8174 30.3928 40.813 30.3928C40.8086 30.3928 40.8043 30.3928 40.7999 30.3928C40.7955 30.3928 40.7911 30.3928 40.7867 30.3928C40.7823 30.3928 40.7779 30.3928 40.7735 30.3928C40.7691 30.3928 40.7647 30.3928 40.7602 30.3928C40.7558 30.3928 40.7514 30.3928 40.7469 30.3928C40.7425 30.3928 40.7381 30.3928 40.7336 30.3928C40.7292 30.3928 40.7247 30.3928 40.7202 30.3928C40.7158 30.3928 40.7113 30.3928 40.7068 30.3928C40.7024 30.3928 40.6979 30.3928 40.6934 30.3928C40.6889 30.3928 40.6844 30.3928 40.6799 30.3928C40.6754 30.3928 40.6709 30.3928 40.6664 30.3928C40.6619 30.3928 40.6573 30.3928 40.6528 30.3928C40.6483 30.3928 40.6437 30.3928 40.6392 30.3928C40.6347 30.3928 40.6301 30.3928 40.6256 30.3928C40.621 30.3928 40.6164 30.3928 40.6119 30.3928C40.6073 30.3928 40.6027 30.3928 40.5982 30.3928C40.5936 30.3928 40.589 30.3928 40.5844 30.3928C40.5798 30.3928 40.5752 30.3928 40.5706 30.3928C40.566 30.3928 40.5614 30.3928 40.5567 30.3928C40.5521 30.3928 40.5475 30.3928 40.5429 30.3928C40.5382 30.3928 40.5336 30.3928 40.5289 30.3928C40.5243 30.3928 40.5196 30.3928 40.515 30.3928C40.5103 30.3928 40.5056 30.3928 40.501 30.3928C40.4963 30.3928 40.4916 30.3928 40.4869 30.3928C40.4822 30.3928 40.4776 30.3928 40.4729 30.3928C40.4682 30.3928 40.4634 30.3928 40.4587 30.3928C40.454 30.3928 40.4493 30.3928 40.4446 30.3928C40.4398 30.3928 40.4351 30.3928 40.4304 30.3928C40.4256 30.3928 40.4209 30.3928 40.4161 30.3928C40.4114 30.3928 40.4066 30.3928 40.4018 30.3928C40.3971 30.3928 40.3923 30.3928 40.3875 30.3928C40.3827 30.3928 40.378 30.3928 40.3732 30.3928C40.3684 30.3928 40.3636 30.3928 40.3588 30.3928C40.354 30.3928 40.3491 30.3928 40.3443 30.3928C40.3395 30.3928 40.3347 30.3928 40.3298 30.3928C40.325 30.3928 40.3202 30.3928 40.3153 30.3928C40.3105 30.3928 40.3056 30.3928 40.3008 30.3928C40.2959 30.3928 40.291 30.3928 40.2862 30.3928C40.2813 30.3928 40.2764 30.3928 40.2715 30.3928C40.2666 30.3928 40.2617 30.3928 40.2568 30.3928C40.2519 30.3928 40.247 30.3928 40.2421 30.3928C40.2372 30.3928 40.2323 30.3928 40.2273 30.3928C40.2224 30.3928 40.2175 30.3928 40.2125 30.3928C40.2076 30.3928 40.2026 30.3928 40.1977 30.3928C40.1927 30.3928 40.1878 30.3928 40.1828 30.3928C40.1778 30.3928 40.1728 30.3928 40.1679 30.3928C40.1629 30.3928 40.1579 30.3928 40.1529 30.3928C40.1479 30.3928 40.1429 30.3928 40.1379 30.3928C40.1329 30.3928 40.1278 30.3928 40.1228 30.3928C40.1178 30.3928 40.1128 30.3928 40.1077 30.3928C40.1027 30.3928 40.0977 30.3928 40.0926 30.3928C40.0875 30.3928 40.0825 30.3928 40.0774 30.3928C40.0724 30.3928 40.0673 30.3928 40.0622 30.3928C40.0571 30.3928 40.052 30.3928 40.0469 30.3928C40.0419 30.3928 40.0368 30.3928 40.0317 30.3928C40.0265 30.3928 40.0214 30.3928 40.0163 30.3928C40.0112 30.3928 40.0061 30.3928 40.0009 30.3928C39.9958 30.3928 39.9907 30.3928 39.9855 30.3928C39.9804 30.3928 39.9752 30.3928 39.97 30.3928C39.9649 30.3928 39.9597 30.3928 39.9545 30.3928C39.9494 30.3928 39.9442 30.3928 39.939 30.3928C39.9338 30.3928 39.9286 30.3928 39.9234 30.3928C39.9182 30.3928 39.913 30.3928 39.9078 30.3928C39.9025 30.3928 39.8973 30.3928 39.8921 30.3928C39.8869 30.3928 39.8816 30.3928 39.8764 30.3928C39.8711 30.3928 39.8659 30.3928 39.8606 30.3928C39.8554 30.3928 39.8501 30.3928 39.8448 30.3928C39.8396 30.3928 39.8343 30.3928 39.829 30.3928C39.8237 30.3928 39.8184 30.3928 39.8131 30.3928C39.8078 30.3928 39.8025 30.3928 39.7972 30.3928C39.7919 30.3928 39.7865 30.3928 39.7812 30.3928C39.7759 30.3928 39.7705 30.3928 39.7652 30.3928C39.7599 30.3928 39.7545 30.3928 39.7492 30.3928V31.5714Z" fill="black"/>
</svg>
