<svg width="40" height="40" viewBox="0 0 40 40" fill="none" xmlns="http://www.w3.org/2000/svg">
<path d="M20 16.875C23.4518 16.875 26.25 14.0768 26.25 10.625C26.25 7.17322 23.4518 4.375 20 4.375C16.5482 4.375 13.75 7.17322 13.75 10.625C13.75 14.0768 16.5482 16.875 20 16.875Z" stroke="black" stroke-width="2" stroke-linecap="round" stroke-linejoin="round"/>
<path d="M29.375 33.125C32.8268 33.125 35.625 30.3268 35.625 26.875C35.625 23.4232 32.8268 20.625 29.375 20.625C25.9232 20.625 23.125 23.4232 23.125 26.875C23.125 30.3268 25.9232 33.125 29.375 33.125Z" stroke="black" stroke-width="2" stroke-linecap="round" stroke-linejoin="round"/>
<path d="M10.625 33.125C14.0768 33.125 16.875 30.3268 16.875 26.875C16.875 23.4232 14.0768 20.625 10.625 20.625C7.17322 20.625 4.375 23.4232 4.375 26.875C4.375 30.3268 7.17322 33.125 10.625 33.125Z" stroke="black" stroke-width="2" stroke-linecap="round" stroke-linejoin="round"/>
</svg>
