<svg width="40" height="40" viewBox="0 0 40 40" fill="none" xmlns="http://www.w3.org/2000/svg">
<path d="M18.125 25C19.8509 25 21.25 23.6009 21.25 21.875C21.25 20.1491 19.8509 18.75 18.125 18.75C16.3991 18.75 15 20.1491 15 21.875C15 23.6009 16.3991 25 18.125 25Z" stroke="black" stroke-width="2" stroke-linecap="round" stroke-linejoin="round"/>
<path d="M5 35.0008L15.9144 24.085" stroke="black" stroke-width="2" stroke-linecap="round" stroke-linejoin="round"/>
<path d="M5 35.001L26.7884 31.3696C27.0047 31.3335 27.2078 31.2412 27.3772 31.1018C27.5466 30.9624 27.6763 30.7809 27.7533 30.5755L31.25 21.251L18.75 8.75098L9.42549 12.2477C9.2201 12.3247 9.0386 12.4544 8.89921 12.6238C8.75982 12.7931 8.66746 12.9962 8.6314 13.2126L5 35.001Z" stroke="black" stroke-width="2" stroke-linecap="round" stroke-linejoin="round"/>
<path d="M31.25 21.2508L35.3661 17.1347C35.4822 17.0186 35.5742 16.8808 35.6371 16.7291C35.6999 16.5775 35.7322 16.4149 35.7322 16.2508C35.7322 16.0866 35.6999 15.9241 35.6371 15.7724C35.5742 15.6208 35.4822 15.483 35.3661 15.3669L24.6339 4.63467C24.3994 4.40025 24.0815 4.26855 23.75 4.26855C23.4185 4.26855 23.1005 4.40025 22.8661 4.63467L18.75 8.75079" stroke="black" stroke-width="2" stroke-linecap="round" stroke-linejoin="round"/>
</svg>
